<?xml version="1.0" encoding="UTF-8"?>
<svg version="1.1" xmlns="http://www.w3.org/2000/svg" width="1536" height="1024">
<path d="M0 0 C506.88 0 1013.76 0 1536 0 C1536 337.92 1536 675.84 1536 1024 C1029.12 1024 522.24 1024 0 1024 C0 686.08 0 348.16 0 0 Z " fill="#FDFDFD" transform="translate(0,0)"/>
<path d="M0 0 C9.9309375 0.0309375 9.9309375 0.0309375 20.0625 0.0625 C20.0625 17.5525 20.0625 35.0425 20.0625 53.0625 C17.7525 53.7225 15.4425 54.3825 13.0625 55.0625 C6.36004676 58.87888111 1.88614911 63.89477534 -0.9375 71.0625 C-1.84441463 74.57631119 -1.84441463 74.57631119 -1.9375 78.0625 C-2.02 79.34125 -2.1025 80.62 -2.1875 81.9375 C-2.02728314 90.23673329 1.47059516 97.06143139 7.0625 103.0625 C11.11139321 106.24992657 15.31729616 108.16441847 20.0625 110.0625 C20.0625 113.6925 20.0625 117.3225 20.0625 121.0625 C18.845625 121.31 17.62875 121.5575 16.375 121.8125 C12.47192794 122.78134767 9.98712408 124.2265009 7.0625 127.0625 C5.72174401 129.74401199 5.77669083 132.00752316 5.59765625 135.00585938 C5.52087646 136.25475952 5.44409668 137.50365967 5.36499023 138.79040527 C5.28496252 140.16235171 5.20496659 141.5343 5.125 142.90625 C5.03957939 144.31435754 4.95371676 145.72243833 4.86743164 147.13049316 C4.64053698 150.84841628 4.41853405 154.56661422 4.19787598 158.28491211 C3.8458441 164.20755479 3.48750528 170.12981383 3.12716675 176.05195618 C3.00286333 178.10886894 2.88126985 180.16592835 2.76000977 182.22302246 C2.38955215 188.3705587 1.94419175 194.48690318 1.29464722 200.61080933 C0.83491568 205.46600225 0.623403 210.33711827 0.37890625 215.20703125 C0.31915619 216.35820435 0.25940613 217.50937744 0.19784546 218.69543457 C0.07062497 221.15160852 -0.05552809 223.60783795 -0.18069458 226.06411743 C-0.37716501 229.91746208 -0.57670028 233.7706371 -0.77709961 237.6237793 C-1.04347819 242.74913518 -1.3089344 247.87453691 -1.57324219 253 C-2.04381547 262.12526913 -2.51546812 271.25046024 -3 280.375 C-3.03872223 281.11074249 -3.07744446 281.84648499 -3.11734009 282.60452271 C-3.5064516 289.95986362 -3.93762857 297.30798092 -4.50390625 304.65234375 C-4.59728271 305.86688232 -4.69065918 307.0814209 -4.78686523 308.33276367 C-4.95763735 310.48866711 -5.13654234 312.64396357 -5.32836914 314.7980957 C-6.27488289 326.52970854 -6.01583457 338.30198448 -5.9375 350.0625 C2.38978947 350.08562684 10.71706563 350.10341683 19.04437923 350.11431217 C22.91070118 350.11954026 26.77700121 350.12663654 30.64331055 350.13793945 C34.37153401 350.148771 38.09973634 350.1547774 41.82797432 350.15737724 C43.25339656 350.15923101 44.67881759 350.16285071 46.10423088 350.16823006 C48.09413408 350.17544393 50.08405834 350.17590808 52.07397461 350.17602539 C53.20870712 350.178246 54.34343964 350.18046661 55.51255798 350.18275452 C57.99709305 350.35224423 57.99709305 350.35224423 59.0625 349.0625 C59.32737708 345.7185609 59.24648604 342.35299604 59.2421875 339 C59.24035965 337.40260986 59.24035965 337.40260986 59.23849487 335.77294922 C59.14065021 322.22649439 58.21707852 308.724218 57.32786179 295.21205902 C56.94396916 289.33296695 56.57959924 283.45260349 56.21149254 277.57250595 C56.07507401 275.39645499 55.93780834 273.22045854 55.80049133 271.04446411 C55.10698583 260.01289586 54.51579788 248.97874822 54 237.9375 C53.0863337 218.64718396 51.91208181 199.37560127 50.64614868 180.10536194 C50.24847334 174.02871885 49.87543781 167.95117671 49.5216217 161.87182617 C49.29129736 157.96597418 49.04600726 154.06115536 48.79733276 150.15643311 C48.68347647 148.3188042 48.57587569 146.48077581 48.47488403 144.64239502 C48.33477965 142.11047737 48.17206656 139.58096808 48.00390625 137.05078125 C47.96845703 136.31039108 47.93300781 135.57000092 47.89648438 134.80717468 C47.54865508 130.04298105 46.46824108 127.41959328 43.0625 124.0625 C40.52093047 122.84574341 40.52093047 122.84574341 37.8125 122.25 C35.46125 121.6621875 35.46125 121.6621875 33.0625 121.0625 C33.0625 117.1025 33.0625 113.1425 33.0625 109.0625 C34.609375 108.485 36.15625 107.9075 37.75 107.3125 C46.50281167 103.76206372 50.58822634 98.60016011 54.375 90.125 C56.16097563 82.16929036 55.50462597 73.70392691 51.6875 66.44921875 C46.92929871 59.01452923 41.59538178 55.19572044 33.0625 53.0625 C33.0625 35.5725 33.0625 18.0825 33.0625 0.0625 C66.12919349 -0.29692058 98.33909289 1.11579969 131.0625 6.0625 C131.98224609 6.19736816 132.90199219 6.33223633 133.84960938 6.47119141 C156.88180795 9.88818596 179.98265065 14.60119498 202.0625 22.0625 C203.64442192 22.55533471 205.22785909 23.04332287 206.8125 23.52734375 C215.78484828 26.27238498 224.49080965 29.21754321 233.0625 33.0625 C234.5883033 33.72841101 236.11436792 34.39372344 237.640625 35.05859375 C253.1865596 41.88341744 268.18371912 49.20797666 282.0625 59.0625 C282.98417969 59.70960938 283.90585938 60.35671875 284.85546875 61.0234375 C290.64482216 65.15519043 296.18560034 69.53312105 301.65234375 74.08203125 C304.00311594 76.06259347 304.00311594 76.06259347 306.37890625 77.69921875 C306.93449219 78.14910156 307.49007812 78.59898437 308.0625 79.0625 C308.0625 79.7225 308.0625 80.3825 308.0625 81.0625 C309.3825 81.7225 310.7025 82.3825 312.0625 83.0625 C312.0625 83.7225 312.0625 84.3825 312.0625 85.0625 C312.65933594 85.32675781 313.25617187 85.59101563 313.87109375 85.86328125 C333.61617752 96.66852317 348.57472225 132.85511568 354.9765625 153.19921875 C360.79574891 173.3381678 364.24267183 194.63645917 364.1953125 215.6015625 C364.19626923 216.56669769 364.19722595 217.53183289 364.19821167 218.5262146 C364.1988871 220.5547492 364.19707765 222.58328605 364.19287109 224.61181641 C364.18754937 227.65923118 364.19281973 230.70649619 364.19921875 233.75390625 C364.20613763 249.21319521 364.02192195 264.5494675 361.3125 279.8125 C361.13549561 280.82489746 360.95849121 281.83729492 360.77612305 282.88037109 C360.22602682 285.94550057 359.65133048 289.00459057 359.0625 292.0625 C358.88734863 292.97612305 358.71219727 293.88974609 358.53173828 294.83105469 C352.10170823 327.24887504 336.26891059 355.5514135 314.0859375 379.81640625 C312.48838072 381.58975596 310.97866508 383.37933982 309.5 385.25 C306.92917184 388.21634018 304.19696492 390.68619801 301.2109375 393.22265625 C299.79728742 394.43325478 298.4055439 395.66999416 297.0390625 396.93359375 C285.34502418 407.73645071 271.7746299 416.0867109 258.0625 424.0625 C257.38380859 424.45824219 256.70511719 424.85398437 256.00585938 425.26171875 C244.08391023 432.11771698 231.48889664 437.09286248 218.67675781 442.03198242 C216.54095891 442.87389568 214.44564214 443.76046254 212.3515625 444.69921875 C208.48407943 446.30224914 204.60216369 447.42348658 200.5625 448.5 C199.76553711 448.715354 198.96857422 448.93070801 198.14746094 449.15258789 C196.53041886 449.58915049 194.91291125 450.02399273 193.29492188 450.45703125 C191.39429369 450.97251221 189.50094565 451.51471483 187.609375 452.0625 C168.05505274 457.62297078 147.6985923 461.17492973 127.54931641 463.73144531 C125.06103082 464.06269558 122.58475321 464.44332354 120.10546875 464.8359375 C107.40364115 466.77536661 94.69568751 467.60926219 81.875 468.25 C81.05277954 468.29279083 80.23055908 468.33558167 79.38342285 468.37966919 C63.91856546 469.16578595 48.57706295 469.0625 33.0625 469.0625 C33.0625 448.9325 33.0625 428.8025 33.0625 408.0625 C40.60738281 408.02511719 48.15226562 407.98773437 55.92578125 407.94921875 C60.69728876 407.91895323 65.46875833 407.88781463 70.24023438 407.85351562 C77.81858449 407.7991235 85.39685952 407.74801647 92.9753418 407.71606445 C99.08328239 407.69011066 105.19097188 407.6497646 111.29875755 407.59931374 C113.63238598 407.5825913 115.96605789 407.57111064 118.29973793 407.56488609 C121.56117892 407.55530348 124.82196966 407.52731405 128.08325195 407.49487305 C129.05429367 407.49630814 130.02533539 407.49774323 131.02580261 407.4992218 C131.91341278 407.48668365 132.80102295 407.47414551 133.7155304 407.46122742 C134.48707112 407.45661845 135.25861185 407.45200949 136.0535326 407.44726086 C138.63316324 406.9532056 139.51662453 406.16362781 141.0625 404.0625 C141.36149615 401.321702 141.48156272 398.85933673 141.4375 396.125 C141.45490234 395.05088867 141.45490234 395.05088867 141.47265625 393.95507812 C141.45491623 390.76483165 141.27025085 388.44216163 139.7265625 385.62109375 C136.01792552 382.14751123 131.21714501 382.91427982 126.45925903 382.91532898 C125.57000917 382.91165229 124.68075931 382.9079756 123.76456249 382.9041875 C120.77288613 382.89313907 117.7812445 382.88930489 114.78955078 382.88549805 C112.6494638 382.8792344 110.50937791 382.87258769 108.36929321 382.86558533 C102.54701056 382.84816941 96.72473612 382.83762248 90.90243387 382.8293798 C87.26724892 382.82423211 83.63206654 382.81815635 79.99688339 382.81186867 C68.62992249 382.79281707 57.2629681 382.77858446 45.89599431 382.7702567 C32.76172062 382.7604759 19.62761509 382.73413415 6.49340069 382.69375581 C-3.65102913 382.66363554 -13.79541062 382.64879181 -23.93988431 382.64547569 C-30.00261014 382.64312102 -36.06515633 382.63410612 -42.12783432 382.60901451 C-47.82908652 382.58579962 -53.53003992 382.58147406 -59.23132706 382.59177589 C-61.32556398 382.59227293 -63.41981529 382.58590342 -65.51400757 382.57221985 C-68.36979713 382.55460156 -71.2245026 382.56155741 -74.08029175 382.57475281 C-74.91190791 382.56378356 -75.74352407 382.55281432 -76.60034072 382.54151267 C-80.57966674 382.58600364 -82.49981783 382.78796508 -85.95559883 384.95559406 C-88.07622908 386.87132915 -88.07622908 386.87132915 -88.50512695 389.26074219 C-88.47894287 390.03579102 -88.45275879 390.81083984 -88.42578125 391.609375 C-88.40966797 392.45371094 -88.39355469 393.29804687 -88.37695312 394.16796875 C-88.31411133 395.47701172 -88.31411133 395.47701172 -88.25 396.8125 C-88.22744141 397.70066406 -88.20488281 398.58882812 -88.18164062 399.50390625 C-88.12282552 401.69182812 -88.04071268 403.87629671 -87.9375 406.0625 C-85.15989845 406.98836718 -83.46072909 407.19671433 -80.5905304 407.22071838 C-79.70292023 407.2305072 -78.81531006 407.24029602 -77.90080261 407.25038147 C-76.92976089 407.25613693 -75.95871918 407.2618924 -74.95825195 407.26782227 C-73.93368896 407.27772186 -72.90912598 407.28762146 -71.85351562 407.29782104 C-68.46096115 407.32945337 -65.06839266 407.35420041 -61.67578125 407.37890625 C-59.32593925 407.39947427 -56.97610097 407.4204707 -54.62626648 407.44187927 C-48.43670658 407.49711557 -42.24711321 407.54651802 -36.05749512 407.59472656 C-28.63354576 407.65375447 -21.20965767 407.71999103 -13.78575897 407.78502655 C-2.50304336 407.88305566 8.77971127 407.97189842 20.0625 408.0625 C20.0625 428.1925 20.0625 448.3225 20.0625 469.0625 C8.86116579 469.0625 -2.2562899 468.90493235 -13.4375 468.4375 C-14.34849457 468.4001474 -15.25948914 468.3627948 -16.1980896 468.3243103 C-33.68912947 467.56567236 -50.91715373 465.53072549 -68.234375 463.00732422 C-69.17488205 462.87262222 -70.1153891 462.73792023 -71.08439636 462.59913635 C-72.83840102 462.34594905 -74.59123439 462.0844437 -76.34248352 461.81285095 C-83.34077699 460.79614024 -88.16930601 461.24953858 -94.3046875 465.0625 C-95.33795166 465.69349609 -96.37121582 466.32449219 -97.43579102 466.97460938 C-98.55010498 467.66361328 -99.66441895 468.35261719 -100.8125 469.0625 C-131.87447894 487.90397835 -164.52477544 504.29443178 -198.25 517.8125 C-199.44061035 518.28985596 -200.6312207 518.76721191 -201.85791016 519.2590332 C-225.69096339 528.60668726 -225.69096339 528.60668726 -236.9375 528.0625 C-238.9375 526.0625 -238.9375 526.0625 -239.4609375 523.55078125 C-238.65830204 518.20187477 -235.65066177 514.59970198 -232.5625 510.25 C-231.26497111 508.36030588 -229.97072905 506.46835095 -228.6796875 504.57421875 C-228.03999023 503.63884277 -227.40029297 502.7034668 -226.74121094 501.73974609 C-211.56580008 479.21490102 -197.73468909 452.51611265 -195.9375 425.0625 C-197.17886719 424.68931641 -197.17886719 424.68931641 -198.4453125 424.30859375 C-211.72046247 419.57171138 -223.63929736 411.32589131 -234.9375 403.0625 C-235.51532227 402.64838867 -236.09314453 402.23427734 -236.68847656 401.80761719 C-254.29045758 389.11592944 -269.14511978 373.22836136 -280.9375 355.0625 C-281.38383789 354.39105957 -281.83017578 353.71961914 -282.29003906 353.02783203 C-294.24741422 334.86027879 -303.00901696 312.67259321 -307.0625 291.3125 C-307.21847656 290.54679687 -307.37445313 289.78109375 -307.53515625 288.9921875 C-310.07244057 276.0331651 -311.25043251 263.20487482 -311.2734375 250.01171875 C-311.27990605 248.61953106 -311.28663693 247.22734456 -311.29360962 245.8351593 C-311.30545849 242.93686798 -311.30930396 240.03869461 -311.30810547 237.14038086 C-311.30794398 234.23289831 -311.32168472 231.32605303 -311.34912109 228.41870117 C-311.75038314 185.20813436 -305.12563872 140.2348714 -277.9375 105.0625 C-277.37933594 104.29679687 -276.82117188 103.53109375 -276.24609375 102.7421875 C-259.23479613 79.86916564 -236.69362115 61.88260757 -211.9375 48.0625 C-210.82810059 47.43311523 -210.82810059 47.43311523 -209.69628906 46.79101562 C-194.70615222 38.35020696 -179.0640916 31.99798163 -162.9375 26.0625 C-162.16148437 25.77648926 -161.38546875 25.49047852 -160.5859375 25.19580078 C-145.55596144 19.74006682 -129.88233087 15.8820702 -114.3125 12.3125 C-113.44939209 12.11398437 -112.58628418 11.91546875 -111.69702148 11.7109375 C-106.14025654 10.46746563 -100.56758337 9.45810177 -94.94677734 8.54931641 C-92.07792613 8.085217 -89.21485162 7.59476555 -86.3515625 7.09765625 C-69.95225548 4.31358785 -53.51120922 2.45415082 -36.9375 1.0625 C-35.79498779 0.96316162 -34.65247559 0.86382324 -33.4753418 0.76147461 C-22.31507054 -0.10594358 -11.18729324 -0.04953427 0 0 Z " fill="#57B3C4" transform="translate(741.9375,246.9375)"/>
<path d="M0 0 C33.06669349 -0.35942058 65.27659289 1.05329969 98 6 C98.91974609 6.13486816 99.83949219 6.26973633 100.78710938 6.40869141 C123.81930795 9.82568596 146.92015065 14.53869498 169 22 C170.58192192 22.49283471 172.16535909 22.98082287 173.75 23.46484375 C182.72234828 26.20988498 191.42830965 29.15504321 200 33 C201.5258033 33.66591101 203.05186792 34.33122344 204.578125 34.99609375 C220.1240596 41.82091744 235.12121912 49.14547666 249 59 C250.38251953 59.97066406 250.38251953 59.97066406 251.79296875 60.9609375 C257.58232216 65.09269043 263.12310034 69.47062105 268.58984375 74.01953125 C270.94061594 76.00009347 270.94061594 76.00009347 273.31640625 77.63671875 C273.87199219 78.08660156 274.42757813 78.53648437 275 79 C275 79.66 275 80.32 275 81 C276.32 81.66 277.64 82.32 279 83 C279 83.66 279 84.32 279 85 C279.59683594 85.26425781 280.19367188 85.52851563 280.80859375 85.80078125 C300.55367752 96.60602317 315.51222225 132.79261568 321.9140625 153.13671875 C327.73324891 173.2756678 331.18017183 194.57395917 331.1328125 215.5390625 C331.13424759 216.98676529 331.13424759 216.98676529 331.13571167 218.4637146 C331.1363871 220.4922492 331.13457765 222.52078605 331.13037109 224.54931641 C331.12504937 227.59673118 331.13031973 230.64399619 331.13671875 233.69140625 C331.14363763 249.15069521 330.95942195 264.4869675 328.25 279.75 C327.98449341 281.26859619 327.98449341 281.26859619 327.71362305 282.81787109 C327.16352682 285.88300057 326.58883048 288.94209057 326 292 C325.82484863 292.91362305 325.64969727 293.82724609 325.46923828 294.76855469 C319.03920823 327.18637504 303.20641059 355.4889135 281.0234375 379.75390625 C279.42588072 381.52725596 277.91616508 383.31683982 276.4375 385.1875 C273.86667184 388.15384018 271.13446492 390.62369801 268.1484375 393.16015625 C266.73478742 394.37075478 265.3430439 395.60749416 263.9765625 396.87109375 C252.28252418 407.67395071 238.7121299 416.0242109 225 424 C224.32130859 424.39574219 223.64261719 424.79148437 222.94335938 425.19921875 C211.02141023 432.05521698 198.42639664 437.03036248 185.61425781 441.96948242 C183.47845891 442.81139568 181.38314214 443.69796254 179.2890625 444.63671875 C175.42157943 446.23974914 171.53966369 447.36098658 167.5 448.4375 C166.70303711 448.652854 165.90607422 448.86820801 165.08496094 449.09008789 C163.46791886 449.52665049 161.85041125 449.96149273 160.23242188 450.39453125 C158.33179369 450.91001221 156.43844565 451.45221483 154.546875 452 C134.99255274 457.56047078 114.6360923 461.11242973 94.48681641 463.66894531 C91.99853082 464.00019558 89.52225321 464.38082354 87.04296875 464.7734375 C74.34114115 466.71286661 61.63318751 467.54676219 48.8125 468.1875 C47.57916931 468.25168625 47.57916931 468.25168625 46.32092285 468.31716919 C30.85606546 469.10328595 15.51456295 469 0 469 C0 448.87 0 428.74 0 408 C11.31732422 407.94392578 11.31732422 407.94392578 22.86328125 407.88671875 C27.63478876 407.85645323 32.40625833 407.82531463 37.17773438 407.79101562 C44.75608449 407.7366235 52.33435952 407.68551647 59.9128418 407.65356445 C66.02078239 407.62761066 72.12847188 407.5872646 78.23625755 407.53681374 C80.56988598 407.5200913 82.90355789 407.50861064 85.23723793 407.50238609 C88.49867892 407.49280348 91.75946966 407.46481405 95.02075195 407.43237305 C95.99179367 407.43380814 96.96283539 407.43524323 97.96330261 407.4367218 C99.29471786 407.41791458 99.29471786 407.41791458 100.6530304 407.39872742 C101.42457112 407.39411845 102.19611185 407.38950949 102.9910326 407.38476086 C105.57066324 406.8907056 106.45412453 406.10112781 108 404 C108.29899615 401.259202 108.41906272 398.79683673 108.375 396.0625 C108.38660156 395.34642578 108.39820313 394.63035156 108.41015625 393.89257812 C108.39241623 390.70233165 108.20775085 388.37966163 106.6640625 385.55859375 C103.80698443 382.88259809 101.00164418 382.87024156 97.27339172 382.84178162 C96.30164001 382.8319928 95.32988831 382.82220398 94.32868958 382.81211853 C92.73186592 382.80348534 92.73186592 382.80348534 91.1027832 382.79467773 C89.98068451 382.78477814 88.85858582 382.77487854 87.70248413 382.76467896 C83.98527146 382.73303507 80.26804601 382.70829501 76.55078125 382.68359375 C73.9767371 382.66302673 71.40269634 382.64203032 68.82865906 382.62062073 C62.74077642 382.57102405 56.65287562 382.52576545 50.56494445 382.48259836 C43.63389954 382.43321177 36.70290188 382.37829892 29.77190268 382.32291877 C15.51464617 382.20912426 1.25734353 382.1022797 -13 382 C-13 380.35 -13 378.7 -13 377 C13.4 376.67 39.8 376.34 67 376 C65.94106579 368.58746051 65.23276032 366.65013413 60 362 C52.85439327 357.27862445 46.51607723 356.2611546 38.0859375 356.29296875 C36.99028473 356.27784744 35.89463196 356.26272614 34.76577759 356.24714661 C31.30197166 356.20451586 27.83904133 356.195455 24.375 356.1875 C22.01169587 356.1643367 19.64841227 356.13896759 17.28515625 356.11132812 C11.52342897 356.04871916 5.76204044 356.01358994 0 356 C0 354.68 0 353.36 0 352 C0.71655762 351.98018066 1.43311523 351.96036133 2.17138672 351.93994141 C5.4063063 351.84490481 8.64056094 351.73513981 11.875 351.625 C13.56689453 351.57859375 13.56689453 351.57859375 15.29296875 351.53125 C16.36933594 351.49257813 17.44570313 351.45390625 18.5546875 351.4140625 C20.04718018 351.36693115 20.04718018 351.36693115 21.56982422 351.31884766 C24.17854517 351.22752917 24.17854517 351.22752917 26 349 C26.30912861 347.00473647 26.30912861 347.00473647 26.26123047 344.6796875 C26.26462433 343.76912598 26.26801819 342.85856445 26.27151489 341.92041016 C26.26183685 340.9154248 26.25215881 339.91043945 26.2421875 338.875 C26.23645721 337.81458496 26.23072693 336.75416992 26.224823 335.66162109 C26.07226339 322.13426412 25.15341298 308.64400696 24.26536179 295.14955902 C23.88146916 289.27046695 23.51709924 283.39010349 23.14899254 277.51000595 C23.01257401 275.33395499 22.87530834 273.15795854 22.73799133 270.98196411 C22.04448583 259.95039586 21.45329788 248.91624822 20.9375 237.875 C20.0238337 218.58468396 18.84958181 199.31310127 17.58364868 180.04286194 C17.18597334 173.96621885 16.81293781 167.88867671 16.4591217 161.80932617 C16.22879736 157.90347418 15.98350726 153.99865536 15.73483276 150.09393311 C15.62097647 148.2563042 15.51337569 146.41827581 15.41238403 144.57989502 C15.27227965 142.04797737 15.10956656 139.51846808 14.94140625 136.98828125 C14.90595703 136.24789108 14.87050781 135.50750092 14.83398438 134.74467468 C14.48615508 129.98048105 13.40574108 127.35709328 10 124 C7.45843047 122.78324341 7.45843047 122.78324341 4.75 122.1875 C3.1825 121.795625 1.615 121.40375 0 121 C0 117.04 0 113.08 0 109 C1.546875 108.4225 3.09375 107.845 4.6875 107.25 C13.44031167 103.69956372 17.52572634 98.53766011 21.3125 90.0625 C23.09847563 82.10679036 22.44212597 73.64142691 18.625 66.38671875 C13.86679871 58.95202923 8.53288178 55.13322044 0 53 C0 35.51 0 18.02 0 0 Z " fill="#D65353" transform="translate(775,247)"/>
<path d="M0 0 C1.24363815 -0.00701431 2.48727631 -0.01402863 3.76860046 -0.02125549 C5.14924782 -0.01382752 6.52989358 -0.00609636 7.91053772 0.00190735 C9.36260234 -0.00052028 10.8146653 -0.00423932 12.26672363 -0.00915527 C16.21305869 -0.01857276 20.15914609 -0.00913131 24.10546184 0.00417686 C28.23291616 0.01548205 32.36035813 0.01138451 36.48782349 0.00942993 C43.42076164 0.00854656 50.35360208 0.01963548 57.28651428 0.03804016 C65.30324707 0.05920012 73.31983661 0.06271969 81.33659166 0.0564782 C89.04503709 0.05078384 96.75343204 0.0564316 104.46187019 0.06765175 C107.74368281 0.07229763 111.02546457 0.07317162 114.30727959 0.0710659 C118.17242487 0.06918255 122.03742435 0.0772905 125.90253639 0.0931263 C127.32151562 0.09736986 128.74050965 0.09821921 130.15949249 0.0954361 C132.09567423 0.09221467 134.03186444 0.10252039 135.96801758 0.11352539 C137.05183684 0.11557826 138.13565611 0.11763113 139.25231838 0.11974621 C142.06237762 0.37557622 143.69247985 0.85658745 146.04750061 2.3742218 C147.31752014 4.15718079 147.31752014 4.15718079 148.43031311 6.37031555 C148.86577454 7.2206134 149.30123596 8.07091125 149.74989319 8.94697571 C150.21935364 9.89234192 150.68881409 10.83770813 151.17250061 11.8117218 C151.93759949 13.31484924 151.93759949 13.31484924 152.71815491 14.8483429 C153.86569387 17.10294921 155.00855006 19.3599429 156.14759827 21.61885071 C158.18036725 25.64586352 160.24286876 29.65732797 162.30921936 33.66719055 C162.86281631 34.74159645 162.86281631 34.74159645 163.42759705 35.83770752 C164.18678971 37.3109766 164.94603712 38.78421747 165.70533752 40.25743103 C167.25612601 43.26830351 168.80370417 46.28082047 170.35118103 49.293396 C174.55379899 57.47490981 178.76542887 65.65170849 182.99040222 73.82170105 C183.91207812 75.60406648 184.83318619 77.3867255 185.75428772 79.16938782 C188.68659836 84.83798943 191.63395754 90.49797599 194.61000061 96.14375305 C195.16961487 97.20755188 195.72922913 98.27135071 196.30580139 99.36738586 C197.35243048 101.35443221 198.40265557 103.33959033 199.45716858 105.32246399 C199.91752502 106.19677063 200.37788147 107.07107727 200.85218811 107.97187805 C201.25421448 108.72992737 201.65624084 109.48797668 202.07044983 110.26899719 C203.01270228 112.29924279 203.58789859 114.18910183 204.04750061 116.3742218 C204.60211975 116.35851135 205.15673889 116.3428009 205.72816467 116.32661438 C208.25117213 116.26409318 210.77401637 116.22517838 213.29750061 116.1867218 C214.17019592 116.16158508 215.04289124 116.13644836 215.94203186 116.11054993 C219.51891535 116.06959325 222.30501969 116.05875191 225.62171936 117.4679718 C228.97540683 121.95180601 227.73721056 129.03295114 227.04750061 134.3742218 C222.69988971 156.28246747 209.40543508 175.58208867 191.23109436 188.33125305 C178.64554144 196.40762628 165.48367744 200.72873933 151.04750061 204.3742218 C150.38137756 204.55904114 149.71525452 204.74386047 149.02894592 204.9342804 C138.73254151 207.2203968 126.17529825 205.67272907 116.04750061 203.3742218 C115.06652405 203.1679718 114.08554749 202.9617218 113.07484436 202.7492218 C91.58333787 197.86857001 73.55865895 185.65593596 60.04750061 168.3742218 C59.53832092 167.72582336 59.02914124 167.07742493 58.50453186 166.40937805 C53.6315705 159.68243653 50.87116512 152.11222867 48.04750061 144.3742218 C47.70332092 143.49637024 47.35914124 142.61851868 47.00453186 141.71406555 C44.50113744 134.67400332 43.91171127 126.75238092 45.04750061 119.3742218 C46.46546936 117.4445343 46.46546936 117.4445343 49.04750061 116.3742218 C52.30935486 116.03410715 55.5227271 116.09239672 58.79750061 116.1867218 C60.1297467 116.20702454 60.1297467 116.20702454 61.48890686 116.22773743 C63.67572639 116.26300871 65.86130027 116.31229428 68.04750061 116.3742218 C68.29113342 115.55051086 68.53476624 114.72679993 68.78578186 113.87812805 C70.25857742 109.78804255 72.17145456 106.12858066 74.23500061 102.3117218 C75.14881287 100.59743833 76.06150247 98.88255612 76.97328186 97.16719055 C77.46908752 96.23568176 77.96489319 95.30417297 78.47572327 94.34443665 C81.32704528 88.9562441 84.12384246 83.53990433 86.92250061 78.1242218 C87.22817963 77.53321686 87.53385864 76.94221191 87.84880066 76.33329773 C92.01181767 68.28355881 96.15271862 60.22262887 100.28187561 52.1554718 C100.72866669 51.2828772 101.17545776 50.41028259 101.63578796 49.51124573 C103.84535791 45.19552298 106.05317712 40.87892075 108.25794983 36.56074524 C109.07576787 34.96208529 109.89363667 33.3634513 110.71156311 31.7648468 C111.07562256 31.05026306 111.43968201 30.33567932 111.81477356 29.59944153 C113.70875266 25.90160576 115.6595414 22.24429012 117.68284607 18.6153717 C118.12736807 17.81743069 118.57189007 17.01948967 119.02988243 16.19736862 C119.36569643 15.59573017 119.70151043 14.99409172 120.04750061 14.3742218 C119.40089572 14.37183345 118.75429083 14.3694451 118.08809185 14.36698437 C102.36456341 14.30788311 86.64121289 14.23236461 70.91785717 14.13850689 C63.31419446 14.09351533 55.71057893 14.05410853 48.10682678 14.02778625 C41.48043502 14.00483325 34.85419217 13.97146574 28.22791845 13.92552024 C24.71838206 13.90155131 21.20899348 13.88284673 17.69937706 13.87660789 C13.78424743 13.86945328 9.86948886 13.83905032 5.95448303 13.80659485 C4.78707581 13.80802994 3.61966858 13.80946503 2.41688538 13.8109436 C0.82042427 13.79213638 0.82042427 13.79213638 -0.80828857 13.77294922 C-1.73469052 13.76834025 -2.66109247 13.76373129 -3.61556721 13.75898266 C-5.95249939 13.3742218 -5.95249939 13.3742218 -7.75057507 12.06805134 C-9.76078131 9.23513862 -9.31080109 6.71837103 -8.95249939 3.3742218 C-6.54526939 -0.17024745 -4.08641528 -0.00063267 0 0 Z " fill="#FCF8F8" transform="translate(807.9524993896484,388.6257781982422)"/>
<path d="M0 0 C1.26328629 -0.00845947 2.52657257 -0.01691895 3.82814026 -0.02563477 C5.225633 -0.01980205 6.62312448 -0.01365756 8.02061462 -0.00723267 C9.49415476 -0.01129828 10.96769184 -0.0166401 12.44122314 -0.02316284 C16.44113614 -0.03684243 20.44081708 -0.03153553 24.44073415 -0.02202559 C28.62471091 -0.01443372 32.80866772 -0.02147315 36.99264526 -0.02618408 C44.01795523 -0.03164241 51.04317058 -0.02444737 58.06846619 -0.01016235 C66.19490765 0.00617069 74.3211234 0.00087128 82.44755942 -0.01564157 C89.42174656 -0.02924667 96.39586569 -0.03118108 103.37006181 -0.02332556 C107.53683609 -0.01864447 111.70350419 -0.01803623 115.87027168 -0.02793503 C119.78636327 -0.0365885 123.70216318 -0.03061273 127.61822319 -0.01325226 C129.0569752 -0.00927898 130.49575168 -0.01043583 131.93449402 -0.01704025 C133.89504125 -0.02521162 135.855642 -0.0131578 137.81616211 0 C139.4634485 0.00169662 139.4634485 0.00169662 141.1440134 0.00342751 C143.84458923 0.38095093 143.84458923 0.38095093 145.70183468 1.68210411 C147.59702371 4.49953839 147.14253584 7.1035383 146.84458923 10.38095093 C144.84458923 12.38095093 144.84458923 12.38095093 142.58385277 12.62704659 C141.63440599 12.625203 140.68495922 12.62335941 139.70674133 12.62145996 C138.61856613 12.62420929 137.53039093 12.62695862 136.40924072 12.62979126 C135.210186 12.62260071 134.01113129 12.61541016 132.77574158 12.60800171 C131.51723892 12.60829376 130.25873627 12.60858582 128.96209717 12.60888672 C125.50565752 12.60946189 122.04935593 12.59768117 118.59294844 12.5837388 C114.98279484 12.5712587 111.37263827 12.5700631 107.76246643 12.56768799 C100.92367914 12.5614652 94.08495558 12.54504362 87.24619639 12.52498901 C79.46154288 12.50265481 71.67688637 12.49164283 63.89220881 12.48159814 C47.87629827 12.46067805 31.86045188 12.42548661 15.84458923 12.38095093 C18.9834318 18.52669707 22.12287029 24.67213854 25.26269531 30.81738281 C26.32754551 32.90166567 27.39226644 34.98601456 28.45684814 37.07043457 C38.88436368 57.54474505 38.88436368 57.54474505 49.54771423 77.89657593 C51.74068141 82.08940219 53.72943659 86.32570634 55.6164856 90.66114807 C61.18573782 105.57426498 61.18573782 105.57426498 71.34117126 116.76425171 C76.43437444 118.04065986 80.90106175 117.38814611 85.99302673 116.48178101 C87.84458923 116.38095093 87.84458923 116.38095093 90.36021423 117.90438843 C93.81356866 123.66603765 92.44094067 131.28365068 91.21958923 137.62704468 C84.80195559 160.57581497 70.32310907 180.18482875 49.84458923 192.38095093 C45.59798745 194.62097128 41.2862083 196.56189588 36.84458923 198.38095093 C35.94224548 198.7599353 35.03990173 199.13891968 34.11021423 199.52938843 C10.30969178 208.89468277 -16.06812384 207.33595267 -39.33021545 197.22225952 C-60.76453554 187.34228801 -77.63836041 170.22283271 -86.16322327 148.20516968 C-88.71117201 140.95254391 -91.20883197 133.62604329 -91.46791077 125.88095093 C-91.50529358 125.14876343 -91.54267639 124.41657593 -91.58119202 123.66220093 C-90.93023928 120.17452753 -89.85746335 118.68269943 -87.15541077 116.38095093 C-84.97370226 116.35586399 -82.96331135 116.72086915 -80.8094635 117.06307983 C-76.15880284 117.66242262 -72.36291202 117.61129304 -68.15541077 115.38095093 C-61.950922 108.12396429 -58.4418131 98.66042466 -54.71595764 89.9571228 C-52.80947653 85.588203 -50.63582585 81.4301691 -48.34291077 77.25595093 C-43.11098261 67.41093697 -38.05275929 57.47477941 -32.96229553 47.55621338 C-28.07897127 38.04246748 -23.18242687 28.53756588 -18.16078186 19.09579468 C-15.73273625 14.52331824 -13.42746167 9.90988204 -11.28822327 5.19345093 C-8.42164732 0.60692941 -5.18482542 0.00533825 0 0 Z " fill="#FAFBFB" transform="translate(592.1554107666016,388.6190490722656)"/>
<path d="M0 0 C51.81 0 103.62 0 157 0 C155.39920582 19.2095301 147.25619776 34.54339851 132.47265625 47.15625 C111.53555813 63.14346149 86.79941398 67.5544497 61.06640625 64.5390625 C53.20094207 62.90242981 46.104311 59.68842745 39 56 C38.13632812 55.55914063 37.27265625 55.11828125 36.3828125 54.6640625 C20.29764564 45.77353896 9.96198149 31.71762435 3 15 C2.63648438 14.25492188 2.27296875 13.50984375 1.8984375 12.7421875 C1 10 1 10 0 0 Z " fill="#DE5453" transform="translate(514,516)"/>
<path d="M0 0 C51.48 0 102.96 0 156 0 C156 16.50248469 147.806694 30.60703725 136.6328125 42.51953125 C118.6910418 59.42312828 96.53584618 65.92863464 72.296875 65.25 C51.97810781 64.39806008 33.73095106 56.05945471 19 42 C12.7314124 35.10944056 7.69995006 27.56274156 4 19 C3.69449219 18.34128906 3.38898437 17.68257812 3.07421875 17.00390625 C0.3170116 10.92759665 0 6.78174347 0 0 Z " fill="#DF5352" transform="translate(866,516)"/>
<path d="M0 0 C2.31 0 4.62 0 7 0 C7.27402649 0.53774551 7.54805298 1.07549103 7.8303833 1.62953186 C10.75051317 7.35940674 13.67221444 13.08847851 16.59472656 18.81713867 C17.67714003 20.9393396 18.75918652 23.06172775 19.84082031 25.18432617 C28.68543426 42.54002813 37.62951589 59.84156296 46.7265625 77.06640625 C47.46712891 78.47116211 47.46712891 78.47116211 48.22265625 79.90429688 C49.19346368 81.74450426 50.16764937 83.58293192 51.14453125 85.41992188 C51.62535156 86.33451172 52.10617187 87.24910156 52.6015625 88.19140625 C53.01744629 88.97717041 53.43333008 89.76293457 53.86181641 90.57250977 C55.13437478 93.28659125 56.05207368 96.15622104 57 99 C21.69 99 -13.62 99 -50 99 C-44.71237786 87.83724215 -39.44790658 76.85249395 -33.63769531 65.98193359 C-29.27773538 57.77984849 -25.08006417 49.4933055 -20.85839844 41.21948242 C-19.37055934 38.30379775 -17.88072405 35.38913961 -16.390625 32.47460938 C-10.87351635 21.67617473 -5.39839479 10.85829028 0 0 Z " fill="#56B2C4" transform="translate(589,404)"/>
<path d="M0 0 C1.98 0 3.96 0 6 0 C11.57775379 9.99553224 17.09636418 19.99745315 22.15039062 30.26953125 C24.34827976 34.72823477 26.64048365 39.12482505 29 43.5 C32.09088412 49.23559144 35.03454017 55.03145386 37.92529297 60.87011719 C40.41245169 65.87356679 42.99741781 70.81901069 45.625 75.75 C48.29806886 80.77788799 50.96715696 85.80644771 53.5625 90.875 C54.03816406 91.80054688 54.51382813 92.72609375 55.00390625 93.6796875 C56 96 56 96 56 99 C21.02 99 -13.96 99 -50 99 C-48.44152391 94.32457172 -46.72869144 90.37800229 -44.375 86.125 C-41.47825109 80.79837746 -38.68552677 75.43616528 -36 70 C-33.41833855 64.78491763 -30.76040207 59.62270808 -28 54.5 C-23.82941134 46.74984192 -19.90656136 38.88572253 -16 31 C-5.18586505 9.19120798 -5.18586505 9.19120798 0 0 Z " fill="#D75252" transform="translate(941,404)"/>
<path d="M0 0 C8.60810433 -0.01191061 17.21499608 0.01876613 25.82275391 0.09738159 C28.60160494 0.12255308 31.38022396 0.13766407 34.15917969 0.14419556 C38.07367681 0.15501388 41.98701523 0.20783483 45.90112305 0.26495361 C47.05626404 0.26422348 48.21140503 0.26349335 49.40155029 0.26274109 C58.53806494 0.45422316 65.83401509 2.72679631 72.32299805 9.38214111 C74.9321963 12.74314226 75.67467715 15.71609639 75.76049805 20.00714111 C73.99359246 21.7740467 71.46061318 21.1332903 69.06628418 21.13412476 C67.21106895 21.13835449 67.21106895 21.13835449 65.31837463 21.14266968 C63.93515 21.14072508 62.55192551 21.1386769 61.16870117 21.13653564 C59.72191829 21.13788964 58.27513576 21.13966957 56.82835388 21.1418457 C52.88838042 21.1464202 48.94843303 21.14463041 45.00845909 21.14146662 C40.89426984 21.1389431 36.78008289 21.14128053 32.66589355 21.14285278 C25.75552976 21.1446745 18.84517663 21.14226811 11.93481445 21.13751221 C3.93400038 21.13206958 -4.06678822 21.13383224 -12.06760168 21.13933861 C-18.92448314 21.14386967 -25.78135691 21.14452033 -32.63823938 21.14189994 C-36.73900934 21.14033713 -40.8397673 21.14014352 -44.9405365 21.14343643 C-48.79492835 21.14631504 -52.6492872 21.14433964 -56.50367546 21.13854218 C-57.92230614 21.13721452 -59.34093957 21.13760878 -60.75956917 21.13980484 C-62.68814116 21.14251611 -64.6167192 21.13852173 -66.54528809 21.13412476 C-67.62709602 21.13374773 -68.70890396 21.1333707 -69.82349396 21.13298225 C-72.23950195 21.00714111 -72.23950195 21.00714111 -73.23950195 20.00714111 C-73.23950195 14.11528101 -71.26386389 11.25129253 -67.41918945 6.90167236 C-61.0816191 1.39321068 -56.14035824 0.40101553 -47.95825195 0.36260986 C-46.43062225 0.33329628 -46.43062225 0.33329628 -44.87213135 0.3033905 C-41.49451337 0.24576673 -38.11751601 0.21858315 -34.73950195 0.19464111 C-32.3661257 0.16681045 -29.99275334 0.1386463 -27.61938477 0.11016846 C-20.51585202 0.03784543 -13.41259433 0.01406551 -6.30874634 0.00888824 C-4.20582764 0.00711268 -2.10291623 0.00363444 0 0 Z " fill="#FCFCFC" transform="translate(767.239501953125,602.9928588867188)"/>
<path d="M0 0 C3.0625 1.375 3.0625 1.375 5 3 C5 3.66 5 4.32 5 5 C53.84 5 102.68 5 153 5 C153 8.3 153 11.6 153 15 C104.49 15 55.98 15 6 15 C5.01 17.475 5.01 17.475 4 20 C1.56915986 22.61090237 0.19944674 22.97414579 -3.375 23.4375 C-8.99614735 22.75908566 -11.79120014 20.39476907 -15.4375 16.1875 C-17.44984194 12.08232245 -17.4681118 10.32706636 -16 6 C-11.75278085 0.29945512 -6.90848002 -1.33004382 0 0 Z " fill="#FDFBFB" transform="translate(831,359)"/>
<path d="M0 0 C3.43228459 0.61031821 5.60145669 2.16025648 8.21875 4.39453125 C10.78080842 8.23761889 10.89241765 9.82856165 10.21875 14.39453125 C7.94528295 18.39441234 5.29932278 21.56302206 0.9609375 23.296875 C-2.32201657 23.88112954 -4.67193022 23.99203543 -7.65234375 22.38671875 C-9.84218148 20.632748 -11.52127367 18.91448391 -12.78125 16.39453125 C-61.29125 16.06453125 -109.80125 15.73453125 -159.78125 15.39453125 C-159.78125 12.09453125 -159.78125 8.79453125 -159.78125 5.39453125 C-159.02310658 5.39306469 -158.26496317 5.39159813 -157.48384571 5.39008713 C-139.03908378 5.35304031 -120.59451158 5.2940539 -102.14989948 5.21062851 C-93.23021962 5.17081404 -84.31062829 5.13843381 -75.39086914 5.12353516 C-67.61666797 5.11053109 -59.84266141 5.0835984 -52.06856984 5.03991818 C-47.95195469 5.01727519 -43.83557982 5.00162226 -39.71889687 5.0026474 C-35.8437755 5.00339235 -31.96918585 4.98550864 -28.09420204 4.95336342 C-26.67243881 4.94484772 -25.25061605 4.94312586 -23.82883835 4.94872856 C-21.88625974 4.95536364 -19.94364497 4.93509592 -18.00117493 4.91351318 C-16.37098403 4.90798243 -16.37098403 4.90798243 -14.70785999 4.90233994 C-8.64710555 3.85071237 -6.66462079 -0.29990794 0 0 Z " fill="#FBFCFD" transform="translate(711.78125,358.60546875)"/>
<path d="M0 0 C0.66 0.66 1.32 1.32 2 2 C3.9346551 1.65437734 3.9346551 1.65437734 6 1 C8.95826314 0.89491251 11.8933006 0.84279883 14.85180664 0.83886719 C15.74490036 0.83390228 16.63799408 0.82893738 17.55815125 0.82382202 C20.50882743 0.80923054 23.45944994 0.80240511 26.41015625 0.796875 C28.45991518 0.79112317 30.50967409 0.78536544 32.55943298 0.77960205 C36.85415904 0.76910212 41.14886643 0.76325216 45.44360352 0.75976562 C50.95415097 0.75426841 56.46445289 0.73021001 61.97492313 0.70179367 C66.20674878 0.68320243 70.43851469 0.67796368 74.67037773 0.67642975 C76.70261421 0.67339715 78.73484948 0.66534831 80.76704597 0.65224457 C83.60408603 0.63524979 86.44051804 0.63704761 89.27758789 0.64355469 C90.5423848 0.62973251 90.5423848 0.62973251 91.83273315 0.6156311 C97.56716347 0.65697501 97.56716347 0.65697501 99.71962643 2.36281204 C101 4 101 4 101.3125 6.5625 C101 9 101 9 99 11 C95.94137288 11.17793909 92.97456445 11.23061552 89.91625977 11.1953125 C88.97469025 11.19239197 88.03312073 11.18947144 87.0630188 11.1864624 C85.01406837 11.17883856 82.96513122 11.166593 80.91623116 11.15032959 C77.67654414 11.12488326 74.43702015 11.11179209 71.19725037 11.10205078 C63.14972552 11.07525456 55.1023553 11.02685931 47.05493164 10.97924805 C40.25943321 10.93985523 33.46399207 10.9085436 26.66840935 10.88812256 C23.47142689 10.87512208 20.27467864 10.85010429 17.07777405 10.82470703 C15.12289639 10.81744348 13.16801655 10.81073983 11.21313477 10.8046875 C10.32004105 10.79435486 9.42694733 10.78402222 8.50679016 10.77337646 C7.68938354 10.77323547 6.87197693 10.77309448 6.02980042 10.77294922 C4.96487791 10.76628738 4.96487791 10.76628738 3.87844181 10.75949097 C1.66656013 10.90123766 1.66656013 10.90123766 -1 13 C-4.29775432 13.50734682 -5.55803405 13.31057067 -8.3125 11.375 C-10.47898298 8.3258758 -10.54624158 6.66762206 -10 3 C-7.71933282 -1.02470679 -4.21240995 -0.38294636 0 0 Z " fill="#F9FBFC" transform="translate(635,339)"/>
<path d="M0 0 C3.4375 0.4375 3.4375 0.4375 5.375 1.5625 C6.96740283 4.37262264 6.89069325 6.26514724 6.4375 9.4375 C4.42549381 12.26921242 3.31678233 13.28737863 -0.125 13.875 C-2.92498966 13.37243775 -3.82357595 12.63403565 -5.5625 10.4375 C-6.5525 10.7675 -7.5425 11.0975 -8.5625 11.4375 C-11.54940794 11.53949107 -14.51307704 11.58432862 -17.50024414 11.58276367 C-18.41430527 11.58612228 -19.32836639 11.5894809 -20.27012634 11.59294128 C-23.2959834 11.60245207 -26.32178517 11.60439425 -29.34765625 11.60546875 C-31.44608076 11.60868046 -33.54450504 11.61204447 -35.64292908 11.61555481 C-40.0419873 11.62154585 -44.44102587 11.62339466 -48.84008789 11.62280273 C-54.48859007 11.62270094 -60.13696704 11.63637154 -65.78543949 11.65357494 C-70.11844975 11.66466765 -74.45142943 11.66672281 -78.78445244 11.66619301 C-80.86774567 11.66737655 -82.95103961 11.67181909 -85.03431892 11.67952538 C-87.94102004 11.68927337 -90.84744526 11.68646824 -93.75415039 11.68041992 C-94.62121613 11.68603943 -95.48828186 11.69165894 -96.38162231 11.69744873 C-102.33418252 11.66581748 -102.33418252 11.66581748 -104.5625 9.4375 C-104.875 7 -104.875 7 -104.5625 4.4375 C-103.28296757 2.80115318 -103.28296757 2.80115318 -101.5625 1.4375 C-98.57529947 1.14115041 -95.79661512 1.02787488 -92.80834961 1.04931641 C-91.46651863 1.04143097 -91.46651863 1.04143097 -90.09757996 1.03338623 C-87.13649104 1.0201668 -84.17593827 1.02893047 -81.21484375 1.0390625 C-79.16125892 1.0370425 -77.10767478 1.03413169 -75.05409241 1.03036499 C-70.74912693 1.02593915 -66.4443481 1.03238179 -62.1394043 1.04638672 C-56.61187122 1.06348942 -51.08477475 1.05363208 -45.55725765 1.03566933 C-41.31686592 1.02484772 -37.07657835 1.02827018 -32.83618355 1.0360527 C-30.79755159 1.03805865 -28.75891027 1.03558168 -26.72028923 1.02861404 C-23.87568851 1.02102507 -21.03180307 1.03256726 -18.18725586 1.04931641 C-17.3388916 1.04324371 -16.49052734 1.03717102 -15.61645508 1.03091431 C-13.27549744 1.05654907 -13.27549744 1.05654907 -9.5625 1.4375 C-8.5725 2.9225 -8.5725 2.9225 -7.5625 4.4375 C-7.046875 3.7775 -6.53125 3.1175 -6 2.4375 C-3.5625 0.4375 -3.5625 0.4375 0 0 Z " fill="#FCF8F8" transform="translate(905.5625,338.5625)"/>
<path d="M0 0 C4.08130356 2.36521614 7.25322708 4.49280365 8.94921875 9.05078125 C9.66975435 15.43266797 8.7932704 18.89165929 4.94921875 24.05078125 C0.87265981 26.98969583 -2.94345909 27.63871792 -7.8671875 27.47265625 C-11.70653846 26.7308854 -13.40341121 24.89186129 -16.05078125 22.05078125 C-18.77323821 17.57884164 -18.69441512 13.14353425 -18.05078125 8.05078125 C-14.69806985 0.95850713 -7.71397856 -3.57047008 0 0 Z " fill="#FCF8F8" transform="translate(1006.05078125,355.94921875)"/>
<path d="M0 0 C3.91602712 2.10862999 6.66978341 4.21508172 9 8 C9.77026873 12.99919509 9.41856839 17.69778723 7.875 22.5 C5.08613115 26.2184918 2.40919764 27.61141974 -2.1796875 28.3515625 C-6.28033899 28.61389374 -9.13286009 28.37379793 -12.4375 25.8125 C-16.57658615 21.26960057 -17.57448642 17.34311391 -17.453125 11.28515625 C-16.64972115 7.2335075 -14.11770499 4.58140253 -11 2 C-7.20900711 -0.2225625 -4.40760175 -0.4559588 0 0 Z " fill="#F9FCFC" transform="translate(539,355)"/>
<path d="M0 0 C4.29 0 8.58 0 13 0 C13 1.32 13 2.64 13 4 C46.33 4 79.66 4 114 4 C114 4.33 114 4.66 114 5 C76.38 5 38.76 5 0 5 C0 3.35 0 1.7 0 0 Z " fill="#D06265" transform="translate(762,624)"/>
<path d="M0 0 C20.46 0 40.92 0 62 0 C62 0.33 62 0.66 62 1 C54.08 1 46.16 1 38 1 C38 2.32 38 3.64 38 5 C54.5 5 71 5 88 5 C88 5.33 88 5.66 88 6 C80.93824034 6.02551879 73.87649274 6.04293729 66.81469727 6.05493164 C64.41625524 6.05993613 62.01781624 6.06674175 59.61938477 6.07543945 C56.15640516 6.08767613 52.69346616 6.09326731 49.23046875 6.09765625 C47.64228584 6.10539818 47.64228584 6.10539818 46.02201843 6.11329651 C39.29411869 6.1137946 32.68833911 5.72870089 26 5 C26 3.68 26 2.36 26 1 C17.42 1 8.84 1 0 1 C0 0.67 0 0.34 0 0 Z " fill="#DFB3B3" transform="translate(737,598)"/>
<path d="M0 0 C10.23 0 20.46 0 31 0 C31 1.32 31 2.64 31 4 C20.77 3.67 10.54 3.34 0 3 C0 2.01 0 1.02 0 0 Z " fill="#48A7BA" transform="translate(731,625)"/>
<path d="M0 0 C4.29 0 8.58 0 13 0 C13 1.65 13 3.3 13 5 C8.71 5 4.42 5 0 5 C0 3.35 0 1.7 0 0 Z " fill="#D68887" transform="translate(762,624)"/>
<path d="M0 0 C1.06671952 3.20015856 0.94845472 4.88544294 0.5625 8.1875 C0.46066406 9.08855469 0.35882812 9.98960937 0.25390625 10.91796875 C0.17011719 11.60503906 0.08632813 12.29210937 0 13 C-0.99 13 -1.98 13 -3 13 C-3.08121924 11.39667209 -3.13929134 9.79215974 -3.1875 8.1875 C-3.22230469 7.29417969 -3.25710938 6.40085937 -3.29296875 5.48046875 C-2.95081002 2.58352485 -2.24606427 1.77444972 0 0 Z " fill="#D34545" transform="translate(988,361)"/>
<path d="M0 0 C1.32 0 2.64 0 4 0 C4 1.32 4 2.64 4 4 C2.35 4 0.7 4 -1 4 C-0.67 2.68 -0.34 1.36 0 0 Z " fill="#DD7273" transform="translate(771,624)"/>
</svg>
