<svg xmlns="http://www.w3.org/2000/svg" version="1.1" viewBox="172.74164133738603 356.88382687927106 1148.498480243161 312.5649202733485" style="max-height: 500px" width="1148.498480243161" height="312.5649202733485">
<path transform="translate(0,0)" fill="#FDFDFD" d="M0 0 C506.88 0 1013.76 0 1536 0 C1536 337.92 1536 675.84 1536 1024 C1029.12 1024 522.24 1024 0 1024 C0 686.08 0 348.16 0 0 Z"/>
<path transform="translate(367,372)" fill="#53ABC1" d="M0 0 C0 8.91 0 17.82 0 27 C-1.98 27.99 -3.96 28.98 -6 30 C-9.50662851 33.69118791 -10.2842571 36.61208793 -10.4375 41.5625 C-10.25228836 45.83394351 -10.02578987 48.77899788 -7 52 C-4.72237204 53.52854143 -2.45460515 54.74954077 0 56 C0 57.98 0 59.96 0 62 C-2.97 62.99 -2.97 62.99 -6 64 C-6.01981934 64.78084961 -6.03963867 65.56169922 -6.06005859 66.36621094 C-6.46670478 81.86369915 -7.02007003 97.33651641 -7.9375 112.8125 C-8.78847123 127.26221677 -9.46032068 141.71659274 -10.04519653 156.17953491 C-10.1399464 158.51524211 -10.23651982 160.85087606 -10.33493042 163.18643188 C-10.47217984 166.46133699 -10.60242723 169.7364423 -10.73046875 173.01171875 C-10.79430756 174.50588821 -10.79430756 174.50588821 -10.85943604 176.03024292 C-10.89317322 176.93638336 -10.9269104 177.8425238 -10.96166992 178.77612305 C-10.99338791 179.57132858 -11.0251059 180.36653412 -11.05778503 181.18583679 C-11.20640579 183.02167317 -11.20640579 183.02167317 -10 184 C-7.70848583 184.08790975 -5.41427476 184.10694038 -3.12109375 184.09765625 C-2.4344313 184.0962413 -1.74776886 184.09482635 -1.04029846 184.09336853 C1.16067801 184.08775479 3.36155409 184.07520007 5.5625 184.0625 C7.05143083 184.05748676 8.54036324 184.05292355 10.02929688 184.04882812 C13.68623352 184.03863031 17.3431026 184.01967077 21 184 C21.11505997 174.66049526 20.79684302 165.44439537 20.09765625 156.1328125 C19.91056494 153.49004282 19.72510276 150.84724307 19.54345703 148.20410156 C19.49704165 147.5299288 19.45062628 146.85575603 19.40280437 146.16115379 C18.90179889 138.75529256 18.53265301 131.34404288 18.18359375 123.9296875 C18.15226978 123.26804848 18.12094582 122.60640945 18.08867264 121.92472076 C17.89944668 117.91618181 17.71401996 113.90747515 17.53027344 109.89868164 C17.31150292 105.12660582 17.09107928 100.35461042 16.86671448 95.58279419 C16.74880419 93.06960821 16.63287389 90.55632815 16.51939392 88.04293823 C16.25753714 82.44909009 15.96163989 76.85719398 15.58227539 71.27001953 C15.48711388 69.81935593 15.48711388 69.81935593 15.39002991 68.33938599 C15.20198077 65.81451848 15.20198077 65.81451848 13 64 C11.35008418 63.29289322 9.68437744 62.62056011 8 62 C7.5 59.3125 7.5 59.3125 8 56 C9.90448765 54.5216914 11.91519721 53.44274403 14.01953125 52.26953125 C17.04163494 50.3322853 17.93873199 48.38279177 19 45 C19.71035201 39.84487401 19.02640452 36.2874064 16 32 C16 31.34 16 30.68 16 30 C15.4225 29.71125 14.845 29.4225 14.25 29.125 C12.16666667 28.08333333 10.08333333 27.04166667 8 26 C8 17.42 8 8.84 8 0 C57.21752392 -1.92255953 116.96069633 8.24584024 154.515625 42.14453125 C165.07762935 51.99396924 172.96227267 63.37757407 178 77 C178.27328125 77.70382812 178.5465625 78.40765625 178.828125 79.1328125 C183.5196473 92.70143093 183.19514074 107.44836885 183.25 121.625 C183.25790054 122.65997116 183.25790054 122.65997116 183.26596069 123.71585083 C183.41790971 149.5001066 178.49518162 174.13647502 161 194 C160.34773438 194.7940625 159.69546875 195.588125 159.0234375 196.40625 C131.88818942 228.37650592 84.84816645 239.45804891 44.92578125 242.7578125 C32.59225757 243.70855796 20.38893029 244 8 244 C8 233.77 8 223.54 8 213 C27.14 212.67 46.28 212.34 66 212 C66 209.03 66 206.06 66 203 C5.61 202.505 5.61 202.505 -56 202 C-55.67 205.3 -55.34 208.6 -55 212 C-36.85 212.33 -18.7 212.66 0 213 C0 223.23 0 233.46 0 244 C-14.63891779 244 -14.63891779 244 -19.96484375 243.59765625 C-21.11404297 243.51193359 -22.26324219 243.42621094 -23.44726562 243.33789062 C-24.59904297 243.24701172 -25.75082031 243.15613281 -26.9375 243.0625 C-28.70577148 242.93198242 -28.70577148 242.93198242 -30.50976562 242.79882812 C-36.55409572 242.33755929 -42.43413731 241.66896282 -48.39453125 240.55078125 C-57.721673 239.63162835 -64.07237474 244.79378808 -71.60644531 249.53710938 C-85.66238791 258.12780787 -100.76437416 264.82221141 -116 271 C-117.14855469 271.47695313 -118.29710937 271.95390625 -119.48046875 272.4453125 C-124.91133906 274.5876972 -129.15920059 275.44081505 -135 275 C-135.60691225 269.43663768 -133.70519408 266.53518623 -130.5 262.25 C-121.61531439 249.61061865 -116.16586825 236.29644454 -114 221 C-114.67933594 220.75121094 -115.35867187 220.50242187 -116.05859375 220.24609375 C-127.71842216 215.30653829 -137.08177038 207.8098013 -146 199 C-146.96292969 198.14535156 -146.96292969 198.14535156 -147.9453125 197.2734375 C-158.29083108 187.89029274 -164.519462 174.98099795 -169 162 C-169.37886353 160.95332153 -169.37886353 160.95332153 -169.76538086 159.88549805 C-179.50976173 132.21965456 -178.44457718 94.95124837 -166.28125 68.0546875 C-152.75071928 40.15972239 -125.86012325 24.09722201 -97.68969727 13.83129883 C-76.78471251 6.58634397 -55.08814965 3.07635908 -33.125 1.125 C-32.09321625 1.03223282 -32.09321625 1.03223282 -31.04058838 0.93759155 C-20.66441869 0.03341231 -10.41185323 -0.09771291 0 0 Z"/>
<path transform="translate(375,372)" fill="#D4524F" d="M0 0 C49.21752392 -1.92255953 108.96069633 8.24584024 146.515625 42.14453125 C157.07762935 51.99396924 164.96227267 63.37757407 170 77 C170.40992188 78.05574219 170.40992188 78.05574219 170.828125 79.1328125 C175.5196473 92.70143093 175.19514074 107.44836885 175.25 121.625 C175.25790054 122.65997116 175.25790054 122.65997116 175.26596069 123.71585083 C175.41790971 149.5001066 170.49518162 174.13647502 153 194 C152.34773437 194.7940625 151.69546875 195.588125 151.0234375 196.40625 C123.88818942 228.37650592 76.84816645 239.45804891 36.92578125 242.7578125 C24.59225757 243.70855796 12.38893029 244 0 244 C0 233.77 0 223.54 0 213 C28.71 212.505 28.71 212.505 58 212 C58 209.03 58 206.06 58 203 C36.55 202.67 15.1 202.34 -7 202 C-7 200.68 -7 199.36 -7 198 C7.19 197.67 21.38 197.34 36 197 C35.50847518 192.13867505 35.50847518 192.13867505 33 190 C30.49624532 189.75484303 28.09450521 189.62666342 25.5859375 189.5859375 C24.85629791 189.56657135 24.12665833 189.5472052 23.37490845 189.5272522 C21.04172498 189.46741578 18.70849227 189.42105577 16.375 189.375 C14.79424918 189.33682386 13.21351924 189.29777235 11.6328125 189.2578125 C7.7553777 189.16171122 3.87784551 189.07769588 0 189 C0 187.68 0 186.36 0 185 C4.29 184.67 8.58 184.34 13 184 C13.08595996 174.65157506 12.79741355 165.45199353 12.09765625 156.1328125 C11.91056494 153.49004282 11.72510276 150.84724307 11.54345703 148.20410156 C11.49704165 147.5299288 11.45062628 146.85575603 11.40280437 146.16115379 C10.90179889 138.75529256 10.53265301 131.34404288 10.18359375 123.9296875 C10.15226978 123.26804848 10.12094582 122.60640945 10.08867264 121.92472076 C9.89944668 117.91618181 9.71401996 113.90747515 9.53027344 109.89868164 C9.31150292 105.12660582 9.09107928 100.35461042 8.86671448 95.58279419 C8.74880419 93.06960821 8.63287389 90.55632815 8.51939392 88.04293823 C8.25753714 82.44909009 7.96163989 76.85719398 7.58227539 71.27001953 C7.51883438 70.30291046 7.45539337 69.33580139 7.39002991 68.33938599 C7.20198077 65.81451848 7.20198077 65.81451848 5 64 C3.35008418 63.29289322 1.68437744 62.62056011 0 62 C-0.5 59.3125 -0.5 59.3125 0 56 C1.90448765 54.5216914 3.91519721 53.44274403 6.01953125 52.26953125 C9.04163494 50.3322853 9.93873199 48.38279177 11 45 C11.71035201 39.84487401 11.02640452 36.2874064 8 32 C8 31.34 8 30.68 8 30 C7.4225 29.71125 6.845 29.4225 6.25 29.125 C4.16666667 28.08333333 2.08333333 27.04166667 0 26 C0 17.42 0 8.84 0 0 Z"/>
<path transform="translate(442,418)" fill="#FCF7F8" d="M0 0 C1.67542976 0.28604898 3.34385343 0.61781233 5 1 C5.625 3.375 5.625 3.375 6 6 C5.34 6.66 4.68 7.32 4 8 C1.66055264 7.71269945 -0.6739143 7.38063221 -3 7 C-3.33 7.33 -3.66 7.66 -4 8 C-6.95529504 8.16029688 -9.88982457 8.25957328 -12.84765625 8.31640625 C-13.7340831 8.33718735 -14.62050995 8.35796844 -15.53379822 8.37937927 C-18.376617 8.444974 -21.21953117 8.50380552 -24.0625 8.5625 C-25.98503606 8.6056758 -27.90756234 8.64928978 -29.83007812 8.69335938 C-34.55328668 8.80066543 -39.27659153 8.90190451 -44 9 C-44 9.66 -44 10.32 -44 11 C-42.2984375 11.2165625 -42.2984375 11.2165625 -40.5625 11.4375 C-37 12 -37 12 -36 13 C-33.4755093 13.12500152 -30.97700383 13.18603538 -28.45092773 13.20532227 C-27.66074249 13.21522186 -26.87055725 13.22512146 -26.056427 13.23532104 C-23.43218022 13.26702848 -20.80791531 13.29172979 -18.18359375 13.31640625 C-16.36897803 13.33696781 -14.5543672 13.35796406 -12.73976135 13.37937927 C-7.9541518 13.43468241 -3.16849844 13.4840552 1.6171875 13.53222656 C6.49678464 13.58238157 11.37631785 13.63809888 16.25585938 13.69335938 C25.83718502 13.80104168 35.41856608 13.90246413 45 14 C45 15.98 45 17.96 45 20 C18.27 20 -8.46 20 -36 20 C-36.33 20.99 -36.66 21.98 -37 23 C-37.66 23 -38.32 23 -39 23 C-39.33 24.32 -39.66 25.64 -40 27 C-38.77637505 26.97335266 -38.77637505 26.97335266 -37.5280304 26.94616699 C-29.83318392 26.78574401 -22.13914994 26.66401248 -14.4430666 26.58550262 C-10.48646426 26.54378122 -6.53124541 26.48721809 -2.57543945 26.39648438 C1.24371181 26.30943522 5.06153451 26.26170291 8.88160133 26.24098206 C10.33742 26.22622077 11.79316733 26.1973917 13.24841881 26.15415955 C24.6169379 25.82991832 24.6169379 25.82991832 27.91616821 28.62109375 C29.24607465 30.70159238 30.13857631 32.69024638 31 35 C31.57363281 36.02222656 32.14726562 37.04445313 32.73828125 38.09765625 C33.25777344 39.07605469 33.77726562 40.05445313 34.3125 41.0625 C34.90643555 42.17842529 35.50037109 43.29435059 36.11230469 44.4440918 C36.41986694 45.02444183 36.7274292 45.60479187 37.04431152 46.20272827 C38.01905515 48.03583519 39.00299745 49.8637402 39.98925781 51.69067383 C43.27306993 57.78737645 46.46701282 63.90320959 49.484375 70.13671875 C50.03609375 71.24208984 50.5878125 72.34746094 51.15625 73.48632812 C52.19555912 75.57386201 53.2025984 77.67786985 54.171875 79.79882812 C55.59038972 82.59923829 56.7765068 84.78054741 59 87 C62.73805582 88.09211143 66.13728513 88.07803047 70 88 C71.73199003 89.73199003 71.29525228 91.94767335 71.375 94.3125 C71.2354422 105.00770216 66.87980787 113.17598666 59.5 120.75 C47.49390081 131.55548927 33.22781628 136.16873571 17.30078125 135.4140625 C3.19546805 134.29761277 -8.40628182 127.51696127 -18.05859375 117.3984375 C-21.14404253 113.58663559 -23.15189975 109.51930398 -25 105 C-25.433125 103.989375 -25.86625 102.97875 -26.3125 101.9375 C-27.23699754 97.98737414 -27.54874395 94.03488196 -27 90 C-25 88 -25 88 -22.3984375 87.8046875 C-21.40070313 87.82789063 -20.40296875 87.85109375 -19.375 87.875 C-18.37210937 87.89304687 -17.36921875 87.91109375 -16.3359375 87.9296875 C-15.56507813 87.95289063 -14.79421875 87.97609375 -14 88 C-13.86078125 87.22692505 -13.86078125 87.22692505 -13.71875 86.43823242 C-12.72759208 83.07590425 -11.11641196 80.08232402 -9.5 76.98828125 C-9.14542725 76.30179001 -8.79085449 75.61529877 -8.42553711 74.90800476 C-7.28760195 72.70745269 -6.14381239 70.51000183 -5 68.3125 C-4.26135215 66.88495526 -3.52306764 65.45722244 -2.78515625 64.02929688 C2.41435765 53.98591616 7.70797279 43.99605139 13 34 C-9.44 34 -31.88 34 -55 34 C-55.33 32.68 -55.66 31.36 -56 30 C-56.66 30 -57.32 30 -58 30 C-58.33 30.66 -58.66 31.32 -59 32 C-59.04898437 31.15695312 -59.09796875 30.31390625 -59.1484375 29.4453125 C-59.22320312 28.34960938 -59.29796875 27.25390625 -59.375 26.125 C-59.44460938 25.03445313 -59.51421875 23.94390625 -59.5859375 22.8203125 C-59.73253491 19.86953526 -59.73253491 19.86953526 -62 18 C-63.64991582 17.29289322 -65.31562256 16.62056011 -67 16 C-67.5 13.3125 -67.5 13.3125 -67 10 C-65.08231878 8.46322806 -63.13667172 7.38089861 -60.9453125 6.2734375 C-58.64939362 4.77048659 -58.12180933 3.4525159 -57 1 C-38.33333333 1 -19.66666667 1 -1 1 C-0.67 0.67 -0.34 0.34 0 0 Z"/>
<path transform="translate(280.2400665283203,444.72894287109375)" fill="#F7F8F9" d="M0 0 C1.09256355 0.00607269 1.09256355 0.00607269 2.2071991 0.01226807 C2.97481064 0.00876343 3.74242218 0.00525879 4.53329468 0.00164795 C7.07768219 -0.00717455 9.621793 -0.00131847 12.16618347 0.00543213 C13.92973382 0.00408563 15.69328381 0.00214522 17.45683289 -0.00036621 C21.15572132 -0.00331817 24.85451327 0.00098247 28.5533905 0.01031494 C33.30178253 0.02170954 38.04994849 0.01515045 42.79833221 0.00317001 C46.44079806 -0.00404665 50.08321005 -0.00176156 53.72567749 0.0034256 C55.47682726 0.00476263 57.22798186 0.0031125 58.97912598 -0.00153351 C61.42377228 -0.0065956 63.86804916 0.00110682 66.31266785 0.01226807 C67.04104355 0.0082196 67.76941925 0.00417114 68.51986694 0 C73.5314046 0.04252826 73.5314046 0.04252826 75.75993347 2.27105713 C75.42993347 3.92105713 75.09993347 5.57105713 74.75993347 7.27105713 C52.64993347 7.27105713 30.53993347 7.27105713 7.75993347 7.27105713 C19.11866967 29.37521819 19.11866967 29.37521819 30.74015808 51.35064697 C31.43141105 52.65239365 32.09040172 53.97169355 32.71916199 55.30474854 C33.74860341 57.48574247 33.74860341 57.48574247 35.75993347 60.27105713 C38.50444467 61.28304164 38.50444467 61.28304164 41.44743347 61.14605713 C46.73294292 61.24406658 46.73294292 61.24406658 47.75993347 62.27105713 C49.3544992 73.63233793 45.81384854 82.50435939 39.12321472 91.46246338 C30.04096293 101.2924066 16.48248978 107.79445648 3.15055847 108.68121338 C-12.27858374 109.20469642 -24.76574384 105.09280365 -36.61506653 94.89605713 C-40.67891462 91.04440363 -43.77461606 87.29570143 -46.24006653 82.27105713 C-46.63065247 81.47699463 -47.0212384 80.68293213 -47.42366028 79.86480713 C-49.84234026 74.44160772 -51.34491359 69.23209245 -50.24006653 63.27105713 C-48.24006653 61.27105713 -48.24006653 61.27105713 -45.63850403 61.07574463 C-44.14190247 61.11054932 -44.14190247 61.11054932 -42.61506653 61.14605713 C-41.6121759 61.164104 -40.60928528 61.18215088 -39.57600403 61.20074463 C-38.41971497 61.23554932 -38.41971497 61.23554932 -37.24006653 61.27105713 C-36.9609845 60.55063232 -36.68190247 59.83020752 -36.3943634 59.08795166 C-35.2893936 56.39143271 -34.07289058 53.80731793 -32.77131653 51.20074463 C-32.04549377 49.74607788 -32.04549377 49.74607788 -31.30500793 48.26202393 C-30.78857727 47.23375488 -30.27214661 46.20548584 -29.74006653 45.14605713 C-29.20687805 44.08233887 -28.67368958 43.01862061 -28.12434387 41.92266846 C-23.28723926 32.30527327 -18.3134389 22.76557768 -13.24006653 13.27105713 C-12.91747864 12.66326416 -12.59489075 12.05547119 -12.26252747 11.42926025 C-6.22245026 0.05280415 -6.22245026 0.05280415 0 0 Z"/>
<path transform="translate(597,452)" fill="#3492A9" d="M0 0 C7.26 0 14.52 0 22 0 C23.381875 2.660625 24.76375 5.32125 26.1875 8.0625 C30.77946242 16.84434565 35.60668715 25.48155644 40.53198242 34.08032227 C43.52308508 39.31670974 46.36167437 44.57677509 49 50 C51.22082061 47.16905489 53.01623147 44.30262804 54.71484375 41.1328125 C55.23087158 40.17439453 55.74689941 39.21597656 56.27856445 38.22851562 C56.82601318 37.20435547 57.37346191 36.18019531 57.9375 35.125 C59.09602162 32.97117526 60.25488421 30.81753389 61.4140625 28.6640625 C62.00477539 27.56481445 62.59548828 26.46556641 63.20410156 25.33300781 C66.05367822 20.04447864 68.93242388 14.77196286 71.8125 9.5 C73.524375 6.365 75.23625 3.23 77 0 C84.26 0 91.52 0 99 0 C99 30.36 99 60.72 99 92 C92.4 92 85.8 92 79 92 C78.67 72.53 78.34 53.06 78 33 C74.04 40.59 70.08 48.18 66 56 C55.44 74.56 55.44 74.56 54 76 C52.31391034 76.07205511 50.62499341 76.08386068 48.9375 76.0625 C47.55884766 76.04896484 47.55884766 76.04896484 46.15234375 76.03515625 C45.08693359 76.01775391 45.08693359 76.01775391 44 76 C43.59273682 75.29093506 43.18547363 74.58187012 42.76586914 73.85131836 C41.20694091 71.13875246 39.64671316 68.42693888 38.08569336 65.71557617 C37.09718944 63.99778232 36.11009245 62.2791791 35.12304688 60.56054688 C30.17900075 51.97610857 25.09894178 43.4982363 20 35 C19.67 53.81 19.34 72.62 19 92 C12.73 92 6.46 92 0 92 C0 61.64 0 31.28 0 0 Z"/>
<path transform="translate(1181.125,458.75)" fill="#D44F4C" d="M0 0 C4.83577603 4.90923086 7.08593857 9.77761868 7.25 16.6875 C6.80189648 27.50173161 4.05444673 37.07060586 -4.0078125 44.6484375 C-13.18070417 51.58734079 -23.92484914 53.59865893 -35.125 53.375 C-35.99511719 53.36597656 -36.86523438 53.35695313 -37.76171875 53.34765625 C-39.8829342 53.32434619 -42.00400562 53.28848579 -44.125 53.25 C-45.65734771 69.24698374 -45.65734771 69.24698374 -47.125 85.25 C-53.395 85.25 -59.665 85.25 -66.125 85.25 C-65.72000368 67.70015946 -63.44840399 50.60330105 -61.06401062 33.24053955 C-59.92208927 24.87167634 -58.95371197 16.4863316 -58.02587891 8.09106445 C-57.51001993 3.45028474 -56.96357117 -1.15338767 -56.125 -5.75 C-39.00244687 -8.0268368 -14.65831831 -11.08459608 0 0 Z"/>
<path transform="translate(1224.875,479.625)" fill="#D4514E" d="M0 0 C0.9180542 -0.00128906 1.8361084 -0.00257813 2.78198242 -0.00390625 C11.30981501 0.12623322 19.02848602 1.80976785 27.125 4.375 C26.43464666 14.41220742 25.03311329 24.27870253 23.49804688 34.21679688 C22.53339093 40.68670545 21.90718341 46.83347586 22.125 53.375 C24.105 53.375 26.085 53.375 28.125 53.375 C28.125 56.675 28.125 59.975 28.125 63.375 C21.90728707 65.63598652 15.70559561 66.28041528 9.125 65.375 C5.34480489 62.85486993 4.3879942 61.44720714 3.3125 57.0625 C3.2196875 55.7321875 3.2196875 55.7321875 3.125 54.375 C2.54105469 55.06335938 2.54105469 55.06335938 1.9453125 55.765625 C-3.54301392 61.78507979 -9.01676503 64.81465661 -17.16015625 65.75390625 C-23.94419271 65.99535875 -28.4945569 65.61066797 -33.875 61.375 C-39.82931031 55.42068969 -41.20703078 48.76673528 -41.375 40.625 C-41.3534445 29.03487971 -36.52528515 19.24487575 -28.6875 10.8125 C-20.52450363 2.89474386 -11.14932527 -0.01618924 0 0 Z"/>
<path transform="translate(890.625,480.5625)" fill="#3291A9" d="M0 0 C0.78761719 0.00974854 1.57523438 0.01949707 2.38671875 0.02954102 C13.54447374 0.36404688 22.33320899 2.96603298 30.33984375 11.05078125 C37.4841708 19.42925309 37.28736721 28.67562379 36.59375 39.27929688 C35.82187035 46.8947166 32.4393138 52.57648124 26.8125 57.67578125 C16.19279166 65.35124353 3.89160388 65.93753317 -8.6484375 63.9609375 C-17.19507766 61.77825709 -23.50616856 56.45761169 -28.625 49.4375 C-33.15836933 41.50410367 -33.3539582 33.42465587 -32.625 24.4375 C-31.70359749 21.13381845 -30.3717152 18.37709388 -28.625 15.4375 C-28.068125 14.385625 -27.51125 13.33375 -26.9375 12.25 C-20.22407362 4.08502197 -10.43391807 -0.14479082 0 0 Z"/>
<path transform="translate(820.3359375,450.80859375)" fill="#3392AA" d="M0 0 C12.2537604 -0.39161502 22.97104603 2.20331703 33.6640625 8.19140625 C32.70050897 18.74949281 32.70050897 18.74949281 31.6640625 23.19140625 C27.70709179 22.56205259 24.49413119 21.27016634 20.8515625 19.62890625 C12.12478177 16.20761153 1.99852399 15.37734386 -7.0234375 18.44140625 C-14.51473225 22.3990714 -18.72210744 27.47362429 -21.45703125 35.46875 C-23.88235287 45.74133446 -23.38543433 56.81376928 -18.3359375 66.19140625 C-14.15003682 72.80463396 -8.61013345 75.76667427 -1.3359375 78.19140625 C10.84097754 79.26100014 20.88017867 75.468626 31.6640625 70.19140625 C33.40305621 75.40838738 33.35486109 80.76270622 32.6640625 86.19140625 C30.38183125 88.79061407 29.7397274 89.13469988 26.6640625 90.19140625 C25.94089844 90.55621094 25.21773437 90.92101562 24.47265625 91.296875 C12.26781065 96.62626361 -5.38117993 96.56968168 -17.8359375 92.12890625 C-30.39383581 86.14494128 -38.5560895 77.16012593 -43.3359375 64.19140625 C-47.27885358 51.62719179 -46.65440298 37.24047072 -41.2734375 25.25390625 C-35.22115623 13.79206384 -26.15204997 6.04681341 -14.01171875 1.97265625 C-9.27587944 0.58992944 -4.88082341 0.28004724 0 0 Z"/>
<path transform="translate(936,482)" fill="#3291A8" d="M0 0 C6.93 0 13.86 0 21 0 C21.02578125 3.05765625 21.0515625 6.1153125 21.078125 9.265625 C21.11654032 12.2277954 21.16170224 15.18979142 21.20751953 18.15185547 C21.23574049 20.21003898 21.25694941 22.2683311 21.27099609 24.32666016 C21.2924099 27.28604785 21.33905221 30.2441282 21.390625 33.203125 C21.39185364 34.12305237 21.39308228 35.04297974 21.39434814 35.99078369 C21.47506742 41.15029823 21.47506742 41.15029823 23.90161133 45.59057617 C27.08571598 47.72924239 29.15098354 47.26384936 32.80859375 46.69140625 C36.12289637 45.64571719 37.86868782 43.66414022 40 41 C40.33 40.67 40.66 40.34 41 40 C41.16029688 37.04470496 41.25957328 34.11017543 41.31640625 31.15234375 C41.33718735 30.2659169 41.35796844 29.37949005 41.37937927 28.46620178 C41.444974 25.623383 41.50380552 22.78046883 41.5625 19.9375 C41.6056758 18.01496394 41.64928978 16.09243766 41.69335938 14.16992188 C41.80149336 9.44671107 41.90049247 4.72343208 42 0 C48.6 0 55.2 0 62 0 C62 20.46 62 40.92 62 62 C56.06 62 50.12 62 44 62 C43.34 59.36 42.68 56.72 42 54 C41.49210938 54.39832031 40.98421875 54.79664063 40.4609375 55.20703125 C39.77257812 55.73683594 39.08421875 56.26664063 38.375 56.8125 C37.36566406 57.59560547 37.36566406 57.59560547 36.3359375 58.39453125 C31.18025168 61.93798756 27.29777615 63.41643274 21 63.375 C19.824375 63.38273438 18.64875 63.39046875 17.4375 63.3984375 C12.1123345 62.78120241 8.19275033 60.80177581 4.75 56.6875 C4.27046875 56.13449219 3.7909375 55.58148437 3.296875 55.01171875 C-0.53860348 49.06210604 -0.2658805 42.94926812 -0.1953125 36.1328125 C-0.1924826 35.09808807 -0.18965271 34.06336365 -0.18673706 32.99728394 C-0.17558048 29.70640286 -0.15048397 26.41579822 -0.125 23.125 C-0.11496437 20.88802478 -0.10583953 18.65104527 -0.09765625 16.4140625 C-0.0773612 10.94251726 -0.03820333 5.47156651 0 0 Z"/>
<path transform="translate(702,482)" fill="#3392AA" d="M0 0 C6.93 0 13.86 0 21 0 C22.83950037 4.99658446 24.67464335 9.99435906 26.49926758 14.99633789 C27.12050358 16.69548222 27.74416891 18.39374048 28.37036133 20.09106445 C29.27293467 22.53885486 30.16656058 24.98975814 31.05859375 27.44140625 C31.3377916 28.19273331 31.61698944 28.94406036 31.90464783 29.71815491 C33.51172701 34.16655432 34.49817014 38.29364968 35 43 C35.66 43 36.32 43 37 43 C37.06316406 41.81921875 37.12632812 40.6384375 37.19140625 39.421875 C37.97447078 32.392185 40.57022121 25.86846532 42.9375 19.25 C43.39863742 17.93649636 43.85892997 16.62269578 44.31835938 15.30859375 C46.12404585 10.16590493 47.97518926 5.06202685 50 0 C56.27 0 62.54 0 69 0 C67.17362045 5.47913865 65.36073174 10.79675424 63.25 16.1484375 C62.86818321 17.11893539 62.86818321 17.11893539 62.47865295 18.10903931 C61.65533531 20.19885211 60.82816224 22.28710265 60 24.375 C59.57314407 25.45249512 59.57314407 25.45249512 59.13766479 26.55175781 C57.66889521 30.25805918 56.19694787 33.9630785 54.72216797 37.66699219 C53.35768788 41.09550961 52.00407025 44.5281664 50.65444946 47.96255493 C49.46608802 50.97860253 48.26338454 53.98892137 47.0625 57 C46.63904297 58.0832959 46.21558594 59.1665918 45.77929688 60.28271484 C41.30830784 71.39526333 35.77399059 80.57362045 25 86.375 C18.62990934 89.05597729 11.75735512 88.24350829 5 88 C4.67 83.38 4.34 78.76 4 74 C5.69125 73.9175 7.3825 73.835 9.125 73.75 C15.7660642 73.12766664 19.10900883 71.17463985 23.5 66.125 C25.34801239 63.13636974 25.34801239 63.13636974 24.29345703 60.27587891 C22.85886293 56.64254867 21.36474709 53.04171171 19.8046875 49.4609375 C19.16799898 47.98691988 18.5313636 46.51287931 17.89477539 45.03881836 C17.56430206 44.27600555 17.23382874 43.51319275 16.89334106 42.7272644 C12.18020553 31.84040013 7.47701687 20.94962895 3.0625 9.9375 C2.57789307 8.73649658 2.57789307 8.73649658 2.08349609 7.51123047 C0 2.25580952 0 2.25580952 0 0 Z"/>
<path transform="translate(422,513)" fill="#D4504D" d="M0 0 C27.72 0 55.44 0 84 0 C82.65972589 10.72219292 78.84520164 17.32052397 70.5625 24.24609375 C66.03737964 27.3433179 61.15286352 29.20232021 56 31 C54.88625 31.433125 53.7725 31.86625 52.625 32.3125 C40.19606312 34.66971217 27.90256059 32.98958138 17.125 26.1875 C7.6269212 19.21180476 1.97168626 11.83011754 0 0 Z"/>
<path transform="translate(1069,465)" fill="#3291A8" d="M0 0 C6.6 0 13.2 0 20 0 C20 5.61 20 11.22 20 17 C25.28 17 30.56 17 36 17 C36 21.62 36 26.24 36 31 C30.72 31 25.44 31 20 31 C20.07400065 35.36093469 20.15681516 39.71981611 20.26245117 44.07983398 C20.29569423 45.56279854 20.32372823 47.04588944 20.34643555 48.52905273 C20.37999468 50.66184293 20.43230638 52.79347612 20.48828125 54.92578125 C20.51446533 56.20880127 20.54064941 57.49182129 20.56762695 58.8137207 C20.73938888 61.95415365 20.73938888 61.95415365 22.37695312 63.91015625 C24.63206449 65.42441875 26.49552107 65.51269617 29.1875 65.6875 C30.775625 65.790625 32.36375 65.89375 34 66 C34 70.29 34 74.58 34 79 C25.90114562 81.02471359 16.86460144 80.89748474 9 78 C4.15807216 74.80250048 1.65419431 71.50896136 0 66 C-0.36467685 63.2070237 -0.35267442 60.47292434 -0.29296875 57.66015625 C-0.28872391 56.89319931 -0.28447906 56.12624237 -0.28010559 55.33604431 C-0.2634507 52.91115668 -0.22582553 50.48713202 -0.1875 48.0625 C-0.17243601 46.40821522 -0.15875062 44.75391727 -0.14648438 43.09960938 C-0.11359077 39.06607897 -0.06190249 35.03318527 0 31 C-3.3 31 -6.6 31 -10 31 C-10 26.71 -10 22.42 -10 18 C-6.7 17.67 -3.4 17.34 0 17 C0 11.39 0 5.78 0 0 Z"/>
<path transform="translate(238,513)" fill="#D7524E" d="M0 0 C27.39 0 54.78 0 83 0 C81.71812296 8.97313931 78.89814475 16.14834928 72.15625 22.40234375 C59.46320636 31.80715326 46.25825085 33.21846683 31 32 C26.93651912 31.20270609 23.61751556 29.99458906 20 28 C19.2059375 27.56429687 18.411875 27.12859375 17.59375 26.6796875 C9.28518451 21.61146255 2.74351783 14.49154926 0 5 C0 3.35 0 1.7 0 0 Z"/>
<path transform="translate(1272,447)" fill="#D44F4D" d="M0 0 C6.27 0 12.54 0 19 0 C17.6540775 11.57712197 16.25874056 23.14576414 14.72265625 34.69921875 C14.61188248 35.53332275 14.5011087 36.36742676 14.38697815 37.22680664 C13.83388635 41.38441222 13.27653274 45.54140049 12.71411133 49.69775391 C11.13334069 61.46330983 9.76315151 73.10494231 10 85 C11.98 85.33 13.96 85.66 16 86 C16 89.3 16 92.6 16 96 C8.82444292 98.16620591 1.07994232 99.66528258 -6.0625 96.75 C-8.80191712 94.27568776 -9.87829168 92.20072203 -10.25244141 88.50952148 C-10.17709657 80.28200742 -9.39199313 72.22132858 -8.375 64.0625 C-8.20054612 62.62129282 -8.02640149 61.18004818 -7.85253906 59.73876953 C-5.4246548 39.80210452 -2.69670202 19.90166094 0 0 Z"/>
<path transform="translate(1054,481)" fill="#3390A7" d="M0 0 C0 5.94 0 11.88 0 18 C-2.02125 17.9175 -4.0425 17.835 -6.125 17.75 C-13.12556191 17.75 -15.717455 18.72984945 -20.61645508 23.61035156 C-22.63914439 27.10392542 -22.47986232 30.55245353 -22.51171875 34.484375 C-22.52966995 35.29996887 -22.54762115 36.11556274 -22.56611633 36.95587158 C-22.6201802 39.55386223 -22.65410182 42.15166958 -22.6875 44.75 C-22.72067661 46.5143484 -22.75516659 48.27867263 -22.79101562 50.04296875 C-22.87837148 54.36200495 -22.93847057 58.68020995 -23 63 C-29.93 63 -36.86 63 -44 63 C-44 42.54 -44 22.08 -44 1 C-38.06 1 -32.12 1 -26 1 C-25.01 3.97 -24.02 6.94 -23 10 C-22.29875 9.0925 -21.5975 8.185 -20.875 7.25 C-14.49449375 -0.20865273 -9.52620003 -0.42338667 0 0 Z"/>
<path transform="translate(463,453)" fill="#D45350" d="M0 0 C3 1 3 1 4.515625 3.61328125 C5.10197523 4.84246421 5.67926674 6.07598842 6.25 7.3125 C10.19902042 15.54654455 14.47847692 23.58963802 18.8125 31.625 C19.80055845 33.4574271 20.78848881 35.28992144 21.77561951 37.12284851 C22.65233147 38.7500389 23.5308188 40.3762724 24.40942383 42.00244141 C29 50.65372218 29 50.65372218 29 53 C10.52 53 -7.96 53 -27 53 C-25.41485785 48.24457354 -23.6314236 44.05435527 -21.33203125 39.65234375 C-20.79517952 38.61262169 -20.79517952 38.61262169 -20.2474823 37.55189514 C-19.10651842 35.34498292 -17.95949284 33.14128362 -16.8125 30.9375 C-16.06147648 29.4852186 -15.31082236 28.03274612 -14.56054688 26.58007812 C-1.67745258 1.67745258 -1.67745258 1.67745258 0 0 Z"/>
<path transform="translate(278,453)" fill="#54AAC0" d="M0 0 C4.16602801 1.388676 4.48551191 3.33008049 6.44140625 7.2109375 C6.92781837 8.16497719 6.92781837 8.16497719 7.42405701 9.13829041 C8.47933792 11.21270418 9.52092848 13.29367394 10.5625 15.375 C11.280878 16.79373137 12.0002816 18.21194389 12.72070312 19.62963867 C13.79944241 21.75272437 14.87749831 23.87612091 15.95181274 26.00144958 C19.28916472 32.59976146 22.74451208 39.13294279 26.25610352 45.64013672 C29 50.7854665 29 50.7854665 29 53 C10.52 53 -7.96 53 -27 53 C-25.29593646 48.73984115 -23.4126324 44.66406176 -21.3671875 40.56640625 C-21.01165802 39.85201889 -20.65612854 39.13763153 -20.28982544 38.40159607 C-19.53606852 36.88903084 -18.78123316 35.37700262 -18.02539062 33.86547852 C-16.89534608 31.60323103 -15.77171787 29.3378776 -14.6484375 27.07226562 C-10.06087257 17.86271956 -5.21661437 8.87001577 0 0 Z"/>
<path transform="translate(442,418)" fill="#D86361" d="M0 0 C1.67542976 0.28604898 3.34385343 0.61781233 5 1 C5.625 3.375 5.625 3.375 6 6 C5.34 6.66 4.68 7.32 4 8 C1.66055264 7.71269945 -0.6739143 7.38063221 -3 7 C-3.33 7.33 -3.66 7.66 -4 8 C-6.95529504 8.16029688 -9.88982457 8.25957328 -12.84765625 8.31640625 C-13.7340831 8.33718735 -14.62050995 8.35796844 -15.53379822 8.37937927 C-18.376617 8.444974 -21.21953117 8.50380552 -24.0625 8.5625 C-25.98503606 8.6056758 -27.90756234 8.64928978 -29.83007812 8.69335938 C-34.55328668 8.80066543 -39.27659153 8.90190451 -44 9 C-44 9.66 -44 10.32 -44 11 C-42.2984375 11.2165625 -42.2984375 11.2165625 -40.5625 11.4375 C-37 12 -37 12 -36 13 C-33.4755093 13.12500152 -30.97700383 13.18603538 -28.45092773 13.20532227 C-27.66074249 13.21522186 -26.87055725 13.22512146 -26.056427 13.23532104 C-23.43218022 13.26702848 -20.80791531 13.29172979 -18.18359375 13.31640625 C-16.36897803 13.33696781 -14.5543672 13.35796406 -12.73976135 13.37937927 C-7.9541518 13.43468241 -3.16849844 13.4840552 1.6171875 13.53222656 C6.49678464 13.58238157 11.37631785 13.63809888 16.25585938 13.69335938 C25.83718502 13.80104168 35.41856608 13.90246413 45 14 C45 15.98 45 17.96 45 20 C18.27 20 -8.46 20 -36 20 C-36.33 20.99 -36.66 21.98 -37 23 C-37.66 23 -38.32 23 -39 23 C-39.33 24.32 -39.66 25.64 -40 27 C-18.22 27 3.56 27 26 27 C26 27.33 26 27.66 26 28 C24.99188766 28.01030746 23.98377533 28.02061493 22.94511414 28.03123474 C13.45407472 28.12890445 3.96310181 28.23163245 -5.52782917 28.33933926 C-10.40744575 28.39455176 -15.28706833 28.44796915 -20.16674805 28.49731445 C-24.87409417 28.54498259 -29.581367 28.5973264 -34.28862572 28.65294075 C-36.08637866 28.67335318 -37.88415169 28.6920681 -39.68194008 28.70907402 C-42.19599303 28.73314258 -44.70990748 28.76319386 -47.22387695 28.79467773 C-47.97050095 28.8004332 -48.71712494 28.80618866 -49.4863739 28.81211853 C-52.58712929 28.85638576 -55.03572006 29.01190669 -58 30 C-58.33 30.66 -58.66 31.32 -59 32 C-59.04898437 31.15695312 -59.09796875 30.31390625 -59.1484375 29.4453125 C-59.22320312 28.34960938 -59.29796875 27.25390625 -59.375 26.125 C-59.44460938 25.03445313 -59.51421875 23.94390625 -59.5859375 22.8203125 C-59.73253491 19.86953526 -59.73253491 19.86953526 -62 18 C-63.64991582 17.29289322 -65.31562256 16.62056011 -67 16 C-67.5 13.3125 -67.5 13.3125 -67 10 C-65.08231878 8.46322806 -63.13667172 7.38089861 -60.9453125 6.2734375 C-58.64939362 4.77048659 -58.12180933 3.4525159 -57 1 C-38.33333333 1 -19.66666667 1 -1 1 C-0.67 0.67 -0.34 0.34 0 0 Z"/>
<path transform="translate(896,493)" fill="#F8FBFB" d="M0 0 C5.15744414 2.09794338 8.10631896 4.30525063 10.34375 9.46484375 C12.48230866 17.72629953 11.97107264 27.36073314 8 35 C5.31904425 38.35119468 3.2634857 39.69820191 -1.05078125 40.2734375 C-5.34204861 40.4661369 -7.56086085 40.2520984 -11.375 38.0625 C-16.50076939 32.95096886 -17.18175942 26.3861093 -17.375 19.4375 C-17.19347687 12.68168277 -16.537898 7.4140981 -11.4375 2.5625 C-7.32963462 -0.07074704 -4.94524593 -0.40534803 0 0 Z"/>
<path transform="translate(1225.625,491.875)" fill="#FCF9FA" d="M0 0 C0.96164062 -0.00257813 1.92328125 -0.00515625 2.9140625 -0.0078125 C5.375 0.125 5.375 0.125 7.375 1.125 C4.539663 29.87865288 4.539663 29.87865288 -5.53515625 38.8203125 C-9.01816742 40.99475312 -12.56522104 41.36425033 -16.625 41.125 C-20.49254845 38.64580227 -21.63104551 35.51496568 -22.625 31.125 C-23.67161609 21.55856171 -21.1179779 13.34669711 -15.22265625 5.81640625 C-10.52367322 0.84168827 -6.69131449 -0.01803589 0 0 Z"/>
<path transform="translate(1143,466)" fill="#FCF8F8" d="M0 0 C2.54232342 -0.08152344 5.08199202 -0.14073716 7.625 -0.1875 C8.33785156 -0.21263672 9.05070312 -0.23777344 9.78515625 -0.26367188 C15.78280779 -0.34620836 19.81017783 1.04068543 24.375 5.125 C26.69539175 9.23030847 26.82263205 12.39180452 26 17 C23.89557643 23.5266224 21.05263106 27.76655378 15.0625 31.16015625 C10.62790746 32.96590889 6.43634488 33.11468511 1.6875 33.0625 C0.61886719 33.05347656 -0.44976563 33.04445313 -1.55078125 33.03515625 C-2.35902344 33.02355469 -3.16726563 33.01195312 -4 33 C-3.56208275 21.7802581 -2.16754569 11.01494915 0 0 Z"/>
<path transform="translate(250,428)" fill="#F4F9FA" d="M0 0 C1.8125 1.375 1.8125 1.375 3 3 C3 3.66 3 4.32 3 5 C3.66 4.67 4.32 4.34 5 4 C7.55709859 3.88292833 10.08855853 3.82484525 12.64672852 3.81054688 C13.43545349 3.80225357 14.22417847 3.79396027 15.0368042 3.78541565 C16.75177046 3.76800044 18.46676071 3.75283765 20.1817646 3.73963928 C22.89166175 3.71865121 25.60143792 3.69162669 28.31126404 3.66296387 C35.0405784 3.59304999 41.76997848 3.5336549 48.49938965 3.47393799 C54.1850643 3.42309473 59.87067352 3.36830097 65.55625725 3.30812073 C68.23357603 3.28145251 70.91090059 3.26069615 73.58827209 3.2401123 C75.21973972 3.22351701 76.85120457 3.20664585 78.48266602 3.18945312 C79.6086747 3.1831765 79.6086747 3.1831765 80.75743103 3.17677307 C84.16732255 3.4365319 84.16732255 3.4365319 87 2 C93.24521739 1.5373913 93.24521739 1.5373913 95.9375 3.1875 C97.41359492 5.70554428 97.49089348 7.12476676 97 10 C95.375 12.375 95.375 12.375 93 14 C89.75 13.75 89.75 13.75 87 13 C86.505 11.515 86.505 11.515 86 10 C84.48450058 10.00333092 84.48450058 10.00333092 82.93838501 10.00672913 C73.43238032 10.02697163 63.92637998 10.0419775 54.42035866 10.05181217 C49.53283416 10.05703817 44.64532701 10.06413071 39.7578125 10.07543945 C35.04403894 10.08627835 30.3302821 10.09227897 25.61649704 10.09487724 C23.8151053 10.09672968 22.01371451 10.10034683 20.21232986 10.10573006 C17.69573209 10.11295376 15.17920407 10.11399037 12.66259766 10.11352539 C11.91237839 10.11712067 11.16215912 10.12071594 10.38920593 10.12442017 C5.22810432 10.11405216 5.22810432 10.11405216 3 9 C2.690625 9.639375 2.38125 10.27875 2.0625 10.9375 C1 13 1 13 0 14 C-2.99894961 14.26077823 -5.18003295 14.43731576 -7.875 13 C-9.68498652 9.78224619 -9.67345584 6.59176448 -9 3 C-6.39345968 -0.08923297 -3.94188254 -0.60644347 0 0 Z"/>
<path transform="translate(386.9952392578125,560.1451721191406)" fill="#FBFBFC" d="M0 0 C1.79134169 0.02816358 3.58278229 0.05062674 5.37426758 0.06732178 C7.90169858 0.09472999 10.42718016 0.14864213 12.95397949 0.21029663 C14.08796425 0.21694336 14.08796425 0.21694336 15.24485779 0.22372437 C18.64421108 0.33459538 20.72422479 0.66590858 23.57043457 2.58261108 C25.00476074 4.85482788 25.00476074 4.85482788 24.00476074 9.85482788 C-1.73523926 9.85482788 -27.47523926 9.85482788 -53.99523926 9.85482788 C-53.99523926 4.85482788 -53.99523926 4.85482788 -52.35559082 2.58261108 C-49.4438579 0.45121536 -47.81787709 0.30607782 -44.22961426 0.21029663 C-43.04794678 0.17251099 -41.8662793 0.13472534 -40.64880371 0.09579468 C-39.36062744 0.07815063 -38.07245117 0.06050659 -36.74523926 0.04232788 C-35.39391393 0.01376556 -34.04259566 -0.01513221 -32.69128418 -0.04434204 C-21.7968975 -0.24255035 -10.89415492 -0.17805632 0 0 Z"/>
<path transform="translate(398,429)" fill="#FBF5F5" d="M0 0 C6.875 0.875 6.875 0.875 8 2 C10.5244907 2.12500152 13.02299617 2.18603538 15.54907227 2.20532227 C16.33925751 2.21522186 17.12944275 2.22512146 17.943573 2.23532104 C20.56781978 2.26702848 23.19208469 2.29172979 25.81640625 2.31640625 C27.63102197 2.33696781 29.4456328 2.35796406 31.26023865 2.37937927 C36.0458482 2.43468241 40.83150156 2.4840552 45.6171875 2.53222656 C50.49678464 2.58238157 55.37631785 2.63809888 60.25585938 2.69335938 C69.83718502 2.80104168 79.41856608 2.90246413 89 3 C89 4.98 89 6.96 89 9 C62.27 9 35.54 9 8 9 C7.67 9.99 7.34 10.98 7 12 C0.59903382 13.32850242 0.59903382 13.32850242 -1.9375 11.9375 C-3.48248122 9.1201813 -3.38752719 7.16480542 -3 4 C-1.5 1.625 -1.5 1.625 0 0 Z"/>
<path transform="translate(442,418)" fill="#FAF0F0" d="M0 0 C1.67542976 0.28604898 3.34385343 0.61781233 5 1 C5.625 3.375 5.625 3.375 6 6 C5.34 6.66 4.68 7.32 4 8 C2.39796412 7.79611924 0.79682946 7.57784431 -0.79397583 7.29959106 C-5.37013537 6.67812167 -10.01142926 6.87984688 -14.62109375 6.90234375 C-15.72099136 6.9037587 -16.82088898 6.90517365 -17.95411682 6.90663147 C-21.44860617 6.91220497 -24.94303019 6.92475261 -28.4375 6.9375 C-30.8144522 6.94251842 -33.1914054 6.94708073 -35.56835938 6.95117188 C-41.37892834 6.96216572 -47.1894595 6.97887738 -53 7 C-53.38218767 5.34385343 -53.71395102 3.67542976 -54 2 C-53 1 -53 1 -51.03970337 0.87974548 C-49.7508876 0.8830764 -49.7508876 0.8830764 -48.43603516 0.88647461 C-46.9791478 0.88658791 -46.9791478 0.88658791 -45.49282837 0.88670349 C-44.43558563 0.89186478 -43.3783429 0.89702606 -42.2890625 0.90234375 C-41.20998627 0.9037587 -40.13091003 0.90517365 -39.01913452 0.90663147 C-35.55439536 0.91224919 -32.08971975 0.92479731 -28.625 0.9375 C-26.29427177 0.94251336 -23.96354252 0.94707655 -21.6328125 0.95117188 C-16.49327787 0.96103124 -11.35377619 0.97526229 -6.21426392 0.99327087 C-4.47618252 0.99855289 -2.73808942 1 -1 1 C-0.67 0.67 -0.34 0.34 0 0 Z"/>
<path transform="translate(298.28419494628906,418.87974548339844)" fill="#F1F7F9" d="M0 0 C1.01037827 0.00222061 2.02075653 0.00444122 3.06175232 0.00672913 C4.77341331 0.00684242 4.77341331 0.00684242 6.51965332 0.00695801 C7.76129745 0.01211929 9.00294159 0.01728058 10.2822113 0.02259827 C12.17785072 0.02472069 12.17785072 0.02472069 14.11178589 0.02688599 C17.47705394 0.0315487 20.84225495 0.04053972 24.20750427 0.05158997 C27.63930175 0.06180606 31.07110614 0.06638403 34.50291443 0.07142639 C41.2405633 0.08248071 47.9781803 0.09923742 54.71580505 0.12025452 C55.09799272 1.77640109 55.42975607 3.44482476 55.71580505 5.12025452 C54.71580505 6.12025452 54.71580505 6.12025452 52.69976807 6.23377991 C51.81407639 6.22854309 50.9283847 6.22330627 50.01585388 6.21791077 C49.01423721 6.21460754 48.01262054 6.21130432 46.98065186 6.207901 C45.88907272 6.19960266 44.79749359 6.19130432 43.6728363 6.18275452 C42.556483 6.1789679 41.4401297 6.17518127 40.28994751 6.17127991 C35.49427389 6.15487893 30.69868398 6.12687529 25.90306091 6.0997467 C22.40965673 6.08163999 18.91626658 6.06955352 15.4228363 6.05775452 C14.34137833 6.04945618 13.25992035 6.04115784 12.14569092 6.03260803 C7.1900522 6.01651806 2.60366519 6.21098044 -2.28419495 7.12025452 C-3.28419495 6.12025452 -3.28419495 6.12025452 -3.40919495 3.62025452 C-3.24769704 0.3902964 -3.21659056 0.16934174 0 0 Z"/>
<path transform="translate(498,428)" fill="#FBF2F3" d="M0 0 C2.375 1.625 2.375 1.625 4 4 C4.61195145 7.6717087 4.48706506 9.28813568 2.375 12.375 C0 14 0 14 -3 14.5625 C-6 14 -6 14 -8.375 11.8125 C-10.14232156 8.75367423 -10.70698088 7.44653179 -10 4 C-7.16979976 -0.02759265 -4.82432618 -0.80405436 0 0 Z"/>
<path transform="translate(390,426)" fill="#CE423F" d="M0 0 C6.6 0 13.2 0 20 0 C20 0.33 20 0.66 20 1 C18.02 1 16.04 1 14 1 C14 1.66 14 2.32 14 3 C12.02 3 10.04 3 8 3 C8 2.34 8 1.68 8 1 C5.36 1 2.72 1 0 1 C0 0.67 0 0.34 0 0 Z"/>
<path transform="translate(335,426)" fill="#47A0B8" d="M0 0 C5.61 0 11.22 0 17 0 C17 0.33 17 0.66 17 1 C15.2984375 1.2165625 15.2984375 1.2165625 13.5625 1.4375 C10.19222799 1.61171478 10.19222799 1.61171478 9 3 C6.125 3.25 6.125 3.25 3 3 C2.01 2.01 1.02 1.02 0 0 Z"/>
<path transform="translate(368,557)" fill="#EDACAC" d="M0 0 C2.31 0 4.62 0 7 0 C7 0.99 7 1.98 7 3 C4.69 3 2.38 3 0 3 C0 2.01 0 1.02 0 0 Z"/>
<path transform="translate(463,453)" fill="#D76661" d="M0 0 C0.99 0.33 1.98 0.66 3 1 C3.6875 3.0625 3.6875 3.0625 4 5 C3.34 5 2.68 5 2 5 C2 4.34 2 3.68 2 3 C1.54625 3.495 1.0925 3.99 0.625 4.5 C-1 6 -1 6 -3 6 C-1.125 1.125 -1.125 1.125 0 0 Z"/>
<path transform="translate(246,433)" fill="#65B5CB" d="M0 0 C0.99 0 1.98 0 3 0 C3 1.65 3 3.3 3 5 C1.68 4.67 0.36 4.34 -1 4 C-0.67 2.68 -0.34 1.36 0 0 Z"/>
</svg>